<svg width="141" height="30" viewBox="0 0 141 30" fill="none" xmlns="http://www.w3.org/2000/svg">
<g id="&#233;&#149;&#191;&#230;&#178;&#153;&#233;&#147;&#182;&#232;&#161;&#140; (1) 2" clip-path="url(#clip0_1103_38901)">
<path id="Vector" d="M19.3882 14.1617C19.3908 12.2361 20.0343 10.3601 21.2277 8.7997C22.421 7.23934 24.1035 6.0738 26.0366 5.46835C27.9698 4.8629 30.0554 4.84827 31.9978 5.42652C33.9402 6.00478 35.6408 7.14658 36.8585 8.69002L33.1854 11.3017C32.5489 10.4846 31.6558 9.87839 30.6335 9.56967C29.6112 9.26095 28.5118 9.26545 27.4924 9.58254C26.4729 9.89963 25.5854 10.5131 24.9565 11.3354C24.3276 12.1577 23.9894 13.1469 23.9902 14.1617C23.9845 15.199 24.333 16.2103 24.984 17.0452C25.635 17.8801 26.5537 18.494 27.6033 18.7955C28.6529 19.097 29.7775 19.0701 30.8096 18.7186C31.8417 18.3672 32.7263 17.7101 33.3317 16.845L37.0136 19.4617C35.8241 21.0477 34.1323 22.2352 32.1825 22.8526C30.2326 23.47 28.1257 23.4853 26.166 22.8964C24.2064 22.3074 22.4954 21.1447 21.2803 19.5762C20.0651 18.0076 19.4087 16.1144 19.4058 14.17L19.3882 14.1617Z" fill="#D80C18"/>
<path id="Vector_2" d="M15.8629 18.3083V18.2567C15.8629 15.79 14.5304 14.5583 12.3572 13.7483C13.8871 13.0117 14.8459 11.4683 14.8106 9.79166V9.74166C14.8106 6.85166 12.4629 4.99999 8.677 4.99999H0V23.3333H8.87793C13.0851 23.3333 15.8629 21.6617 15.8629 18.3083ZM10.7445 10.4733C10.7445 11.835 9.59705 12.4133 7.79044 12.4133H3.99569V8.53333H8.04601C9.79798 8.53333 10.7356 9.21499 10.7356 10.4217L10.7445 10.4733ZM11.7791 17.765C11.7791 19.1267 10.6828 19.7567 8.87793 19.7567H3.99569V15.7567H8.76336C10.8678 15.7567 11.8055 16.515 11.8055 17.7483L11.7791 17.765V17.765ZM58.1639 17.8333V17.7817C58.1639 14.67 55.8726 13.37 51.7976 12.4233C48.3272 11.635 47.4688 11.2483 47.4688 10.0733V10.0233C47.4688 9.18666 48.3554 8.46499 50.0527 8.46499C51.958 8.55531 53.794 9.16992 55.335 10.2333L57.6263 7.27333C55.4754 5.75453 52.8513 4.95537 50.1673 5.00166C46.0253 5.00166 43.0748 7.14833 43.0748 10.385V10.435C43.0748 13.9833 45.6869 14.9717 49.7319 15.895C53.0896 16.6583 53.7787 17.17 53.7787 18.1667V18.2167C53.7787 19.2667 52.6859 19.895 50.8829 19.895C48.6833 19.8343 46.5739 19.0551 44.9131 17.69L42.301 20.4733C44.6417 22.3183 47.6609 23.335 50.7894 23.3333C55.1553 23.3667 58.1639 21.3783 58.1639 17.8333V17.8333Z" fill="#9FA0A0"/>
<path id="Vector_3" d="M17.3964 6.4C17.2476 6.5482 17.0477 6.64123 16.8328 6.66232C16.6178 6.68341 16.402 6.63116 16.2243 6.515C16.0494 6.40379 15.9266 6.23304 15.8816 6.03834C15.8367 5.84365 15.8729 5.64005 15.9828 5.47C19.2541 2 24.0411 0 29.082 0C34.1229 0 38.91 2 42.1812 5.47C42.4104 5.82333 42.3046 6.275 41.9398 6.515C41.762 6.63116 41.5462 6.68341 41.3312 6.66232C41.1163 6.64123 40.9164 6.5482 40.7677 6.4C37.8278 3.33333 33.5624 1.57333 29.0785 1.57333C24.5928 1.57333 20.3275 3.335 17.3893 6.4H17.3964V6.4ZM40.7677 23.6C40.9164 23.4518 41.1163 23.3588 41.3312 23.3377C41.5462 23.3166 41.762 23.3688 41.9398 23.485C42.1147 23.5962 42.2374 23.767 42.2824 23.9617C42.3274 24.1564 42.2911 24.36 42.1812 24.53C38.91 28 34.1229 30 29.082 30C24.0411 30 19.2541 28 15.9828 24.53C15.8729 24.36 15.8367 24.1564 15.8816 23.9617C15.9266 23.767 16.0494 23.5962 16.2243 23.485C16.402 23.3688 16.6178 23.3166 16.8328 23.3377C17.0477 23.3588 17.2476 23.4518 17.3964 23.6C20.3363 26.6667 24.6016 28.4267 29.0855 28.4267C33.5712 28.4267 37.8366 26.665 40.7747 23.6H40.7677Z" fill="#D80C18"/>
<path id="Vector_4" d="M97.5725 4.26671H99.6118C99.9802 6.50171 100.495 8.70671 101.154 10.865H99.0971C98.4252 8.70286 97.9158 6.49848 97.5725 4.26837V4.26671ZM73.7359 11.965L73.5649 11.665H75.9655L76.0184 11.7567C77.3776 13.9731 78.9894 16.0421 80.8249 17.9267L81.1421 18.2617H78.3044L78.2533 18.2084C76.4752 16.3161 74.9578 14.2182 73.7377 11.965H73.7359ZM73.4892 8.54337L73.7359 8.25337C75.0004 6.69571 76.146 5.0549 77.1641 3.34337H79.5453C78.5956 5.13426 77.5136 6.85964 76.3075 8.50671L76.2475 8.58004L73.4874 8.54337H73.4892ZM71.501 16.31C71.4951 16.4046 71.5279 16.4977 71.5927 16.57C71.6223 16.6032 71.6593 16.6296 71.7011 16.6475C71.7428 16.6654 71.7883 16.6742 71.8341 16.6734H74.5167L73.7359 18.3167H70.9511C70.7045 18.3536 70.4521 18.3301 70.2178 18.2484C69.9836 18.1667 69.7755 18.0295 69.6133 17.85C69.4372 17.6565 69.3071 17.4293 69.232 17.184C69.1569 16.9387 69.1384 16.681 69.178 16.4284V10.8117H66.9766V9.24171H69.1797V3.35171H71.4922V9.24004H81.2761V10.7834H71.501V16.31V16.31ZM86.8704 3.33337H88.9026C89.481 4.59036 90.1598 5.80387 90.933 6.96337H88.5853C87.8817 5.81332 87.3075 4.59667 86.8721 3.33337H86.8704ZM96.3722 14.0867H95.0874V3.35004H97.2465V13.3334C97.7541 12.79 98.2282 12.2134 98.6688 11.6084H101.136C99.4304 14.1382 97.3175 16.4009 94.8741 18.315H91.208C93.1198 17.0901 94.8934 15.6827 96.5009 14.115L96.3722 14.0867V14.0867ZM112.189 11.9634V13.4967H110.303V16.5C110.296 16.5912 110.326 16.6815 110.388 16.7517C110.448 16.8184 110.534 16.8567 110.622 16.8534H112.447L111.777 18.315H109.912C109.696 18.3227 109.48 18.2828 109.283 18.1983C109.086 18.1139 108.912 17.9872 108.775 17.8284C108.476 17.4848 108.334 17.043 108.379 16.6V13.4867H106.965V11.9634H108.379V9.67671H107.05V8.10671H112.26V9.67671H110.323V11.9634H112.191H112.189ZM108.668 7.33337H106.766C107.259 6.04004 107.645 4.70337 107.922 3.34004H109.722C109.722 3.34004 109.62 4.00337 109.491 4.63837H112.318V6.18171H109.045C108.77 7.07004 108.668 7.33337 108.668 7.33337ZM131.553 4.15004H140.91V5.69337H131.561L131.553 4.15004ZM118.829 3.70504C119.103 3.70572 119.374 3.76783 119.619 3.8863C119.863 4.00477 120.074 4.17624 120.235 4.38671C120.517 4.75337 120.669 5.21171 120.664 5.68337V9.67671C120.681 10.16 120.54 10.6334 120.269 11.0184C120.098 11.2296 119.875 11.3985 119.62 11.5108C119.365 11.6231 119.085 11.6755 118.804 11.6634H117.288C117.539 12.445 117.852 13.2 118.23 13.9234C118.737 13.3284 119.176 12.67 119.534 11.9634H121.245L121.134 12.235C120.628 13.3492 119.959 14.391 119.148 15.33C119.787 16.3925 120.537 17.3919 121.386 18.3134H119.148C117.504 16.332 116.262 14.081 115.482 11.6734H114.719V16.445C114.701 16.555 114.736 16.6684 114.807 16.75C114.879 16.83 114.983 16.8734 115.089 16.8634H116.964L116.407 18.3134H114.47C113.159 18.3134 112.757 17.29 112.757 16.0917V3.69671L118.831 3.70504H118.829ZM114.726 8.47837V10.1484H118.221C118.282 10.1531 118.344 10.1441 118.401 10.1221C118.459 10.1001 118.51 10.0657 118.55 10.0217C118.594 9.9747 118.627 9.92003 118.648 9.86083C118.67 9.80163 118.678 9.73906 118.674 9.67671V8.47004L114.726 8.47837ZM118.221 5.27504H114.726V6.95337H118.667V5.72837C118.667 5.47337 118.473 5.26671 118.23 5.26671L118.221 5.27504V5.27504ZM126.91 6.51837C127.854 5.53495 128.697 4.46843 129.427 3.33337H131.371C130.261 5.44653 128.728 7.33548 126.855 8.89504L126.908 6.51837H126.91ZM141.003 8.16004V9.64837H139.428V16.8534C139.444 17.2231 139.314 17.5852 139.065 17.87C138.95 18.002 138.807 18.1092 138.645 18.1842C138.483 18.2593 138.306 18.3005 138.125 18.305H134.868L134.397 16.7717H136.891C136.891 16.7717 137.242 16.7717 137.242 16.4367V9.64837H131.442V8.16004H141.003V8.16004ZM92.8436 4.26837H94.8142C94.5339 6.84771 93.9595 9.39083 93.101 11.8534H90.933C91.8508 9.39579 92.4913 6.85332 92.8436 4.26837V4.26837ZM89.4155 18.2967H86.9479C87.9553 16.5423 88.7489 14.6854 89.3133 12.7617H91.4988C90.9947 14.6729 90.294 16.5329 89.4067 18.315L89.4155 18.2967ZM86.9832 7.74337H89.0136C89.5953 9.01004 90.2756 10.2234 91.0441 11.3734H88.6964C87.9926 10.2234 87.4184 9.00672 86.9832 7.74337V7.74337ZM126.908 10.81C127.855 9.82426 128.699 8.75492 129.429 7.61671H131.373C131.031 8.31504 130.634 8.98337 130.192 9.61337V18.3134H128.049V12.1167C127.647 12.5167 127.261 12.87 126.908 13.1884V10.81V10.81Z" fill="#9FA0A0"/>
<path id="Vector_5" d="M68.7393 26.6667H70.1916C71.302 26.6667 72.2643 26.4117 72.2643 25.33C72.2689 25.1728 72.2395 25.0164 72.1779 24.8702C72.1164 24.7241 72.0241 24.5913 71.9065 24.48C71.6655 24.2512 71.3386 24.1218 70.9971 24.12C71.3088 24.0923 71.5978 23.9536 71.8055 23.7321C72.0133 23.5105 72.1244 23.2227 72.1163 22.9267C72.1163 21.9984 71.339 21.6667 70.211 21.6667H68.7393V26.6667V26.6667ZM69.5148 24.3834H70.0259C70.6904 24.3834 71.4412 24.495 71.4412 25.235C71.4412 25.9767 70.812 26.0867 70.1088 26.0867H69.5271L69.5165 24.3834H69.5148ZM69.5148 22.2467H70.3308C70.7838 22.2467 71.339 22.4 71.339 22.9967C71.339 23.7367 70.701 23.7967 69.9413 23.7967H69.5165V22.2467H69.5148ZM72.2643 26.6667H73.0557L73.5951 25.4084H76.186L76.7253 26.6667H77.552L75.3135 21.6667H74.5204L72.2643 26.6667ZM75.9516 24.8217H73.8471L74.8993 22.3384L75.9516 24.8217V24.8217ZM79.3145 26.6667H79.9578V22.5584H79.9737L82.0112 26.6667H82.8396V21.6667H82.1963V25.69H82.1804L80.1958 21.6667H79.3145V26.6667ZM82.8396 26.6667H83.4776V24.2134L85.4429 26.6667H86.3647L84.1298 24.0267L86.199 21.6667H85.36L83.4776 23.8667V21.6667H82.8396V26.6667ZM88.9644 24.1667C88.9644 23.1917 89.5602 22.29 90.771 22.3C91.9819 22.3067 92.5777 23.1917 92.5777 24.1667C92.5777 25.1417 92.0366 26.0334 90.771 26.0334C89.5055 26.0334 88.9644 25.125 88.9644 24.1667ZM88.136 24.1667C88.0532 25.0334 88.5361 25.8684 89.3857 26.325C90.2352 26.78 91.3069 26.78 92.1564 26.325C93.0059 25.8684 93.4889 25.0334 93.406 24.1667C93.4889 23.3 93.0059 22.465 92.1564 22.0084C91.7332 21.7841 91.2562 21.6664 90.771 21.6664C90.2859 21.6664 89.8089 21.7841 89.3857 22.0084C88.5361 22.465 88.0532 23.3 88.136 24.1667ZM96.9399 26.6667H97.4123V24.3917H98.6461V23.755H97.4123V22.3034H98.7025V21.6667H96.9399V26.6667ZM103.983 21.8767C103.655 21.7339 103.297 21.6638 102.936 21.6717C102.284 21.63 101.649 21.8717 101.179 22.3417C100.702 22.8289 100.447 23.4735 100.469 24.1367C100.428 24.8234 100.675 25.4934 101.147 25.9767C101.618 26.46 102.266 26.71 102.927 26.66C103.289 26.6717 103.65 26.6134 103.99 26.4884L103.951 25.8134C103.634 25.9734 103.287 26.055 102.936 26.0517C101.928 26.0517 101.112 25.2067 101.112 24.1617C101.112 23.1184 101.928 22.2717 102.936 22.2717C103.273 22.2717 103.606 22.3634 103.895 22.5434L103.983 21.8767V21.8767ZM105.753 26.6667H106.41V24.3917H108.62V26.6667H109.278V21.6667H108.62V23.755H106.41V21.6667H105.753V26.6667ZM109.278 26.6667H110.076L110.616 25.4084H113.201L113.739 26.6667H114.565L112.33 21.6667H111.541L109.278 26.6667ZM112.958 24.8217H110.857L111.907 22.3384L112.958 24.8217ZM118.09 26.6667H118.734V22.5584H118.743L120.787 26.6667H121.616V21.6667H120.963V25.69H120.956L118.965 21.6667H118.09V26.6667Z" fill="#9FA0A0"/>
<path id="Vector_6" d="M125.105 21.91C124.716 21.738 124.289 21.6563 123.859 21.6716C123.269 21.63 122.689 21.8716 122.264 22.3416C121.825 22.8458 121.596 23.484 121.619 24.1366C121.584 24.8233 121.808 25.4933 122.236 25.9766C122.663 26.46 123.251 26.71 123.852 26.66C124.289 26.6733 124.725 26.6016 125.141 26.4466V23.94H123.642V24.5316H124.536V26.0033C124.317 26.0672 124.088 26.0954 123.859 26.0866C122.943 26.0866 122.202 25.2383 122.202 24.195C122.202 23.15 122.943 22.305 123.859 22.305C124.268 22.2716 124.677 22.3866 125.026 22.6333L125.105 21.91V21.91ZM130.28 21.8383C130.084 21.7282 129.861 21.669 129.633 21.6666C129.091 21.6666 128.666 22.125 128.666 22.9733C128.666 24.4683 129.961 24.1733 129.961 25.245C129.961 25.4604 129.898 25.6717 129.778 25.855C129.667 26.01 129.521 26.085 129.373 26.0616C129.146 26.038 128.93 25.9562 128.749 25.825L128.706 26.4616C128.892 26.5767 129.105 26.6471 129.327 26.6666C129.931 26.6666 130.428 26.2583 130.428 25.2366C130.428 23.6533 129.133 23.865 129.133 22.9416C129.133 22.435 129.418 22.3033 129.644 22.3033C129.838 22.3033 130.032 22.37 130.208 22.5L130.278 21.8383H130.28ZM132.191 26.6666H132.848V24.3916H135.051V26.6666H135.716V21.6666H135.05V23.755H132.848V21.6666H132.191V26.6666Z" fill="#9FA0A0"/>
<path id="Vector_7" d="M133.953 26.6666H134.745L135.284 25.4083H137.875L138.414 26.6666H139.241L137.003 21.6666H136.209L133.953 26.6666ZM137.641 24.8216H135.501L136.551 22.3383L137.641 24.8216Z" fill="#9FA0A0"/>
</g>
<defs>
<clipPath id="clip0_1103_38901">
<rect width="141" height="30" fill="white"/>
</clipPath>
</defs>
</svg>
