<svg width="165" height="46" viewBox="0 0 165 46" fill="none" xmlns="http://www.w3.org/2000/svg">
<g id="&#230;&#157;&#173;&#229;&#183;&#158;&#233;&#147;&#182;&#232;&#161;&#140; (1) 1">
<path id="Vector" d="M12.5338 4.04488C12.5338 4.04488 12.8636 3.72862 13.4408 3.49143C13.4408 3.49143 13.2759 4.04488 12.6987 4.20301C12.6987 4.20301 13.2759 4.20301 13.4408 4.75645C13.4408 4.75645 13.111 5.07271 12.5338 4.59833C12.5338 4.59833 12.8636 5.15177 12.2039 5.46803C12.2039 5.46803 11.8741 5.3099 12.2039 4.59833C12.2039 4.59833 11.6267 5.15177 11.2969 5.15177C11.2969 5.15177 11.2969 4.83552 12.2039 4.4402C12.2039 4.4402 11.4618 4.4402 11.4618 4.12394C11.4618 4.12394 11.7916 3.80769 12.3688 4.28207C12.3688 4.28207 12.039 3.5705 12.5338 3.25424C12.5338 2.93799 12.8636 3.3333 12.5338 4.04488V4.04488ZM23.2534 14.0069C24.1604 14.3232 23.9955 14.7185 23.5832 14.8766C23.2534 14.7185 23.006 14.7185 22.8411 14.5604C22.8411 14.7185 23.1709 15.1138 23.006 15.272C22.8411 15.4301 22.6762 15.272 22.4288 15.1138C22.4288 15.1138 22.2639 14.7976 22.2639 14.5604C22.2639 14.5604 21.5218 15.1138 21.1919 14.7185C21.1919 14.4022 21.7691 14.1651 21.9341 14.1651C21.7691 14.1651 21.027 14.0069 21.027 13.8488C20.8621 13.6907 21.027 13.6907 21.1919 13.6907C21.5218 13.5325 21.9341 13.6907 22.2639 13.8488C22.2639 13.6907 21.9341 13.2954 22.099 13.1372H22.2639C22.4288 13.1372 22.5937 13.2954 22.5937 13.2954C22.7586 13.4535 22.7586 13.6116 22.7586 13.8488C22.7586 13.6907 23.3359 13.5325 23.3359 13.5325C23.6657 13.3744 24.078 13.6907 23.6657 13.8488L23.2534 14.0069V14.0069ZM10.1425 18.1973C9.81262 18.3554 10.3074 18.9089 10.3074 19.067H9.56524C9.56524 19.067 9.89507 18.3554 9.56524 18.1973C8.82311 17.8811 7.91607 18.7508 7.58623 18.3554C8.16344 18.1973 8.32836 17.4857 8.90557 17.6439C9.07049 17.6439 9.6477 17.9601 9.81262 17.9601V17.4067C9.97753 17.4067 9.97753 17.7229 10.1425 17.7229C10.1425 17.7229 10.7197 17.5648 11.2144 17.5648C11.5443 17.7229 12.1215 18.2764 12.1215 18.5926C11.0495 18.1973 10.1425 18.1973 10.1425 18.1973V18.1973ZM36.7766 14.5604C38.096 15.5882 38.5907 15.1138 39.4978 15.8254C39.4978 15.272 38.9206 14.7976 38.7556 14.5604C40.2399 15.272 40.4048 15.272 40.075 16.1417C39.9101 16.6951 40.8171 15.9835 41.3943 16.4579C41.0645 16.4579 40.8171 16.616 40.3224 16.7742C39.4153 17.3276 38.8381 16.7742 38.3433 17.3276L38.1784 17.0114C38.1784 17.0114 39.0855 16.8532 39.0855 16.4579C39.1679 16.1417 37.1889 16.4579 36.7766 14.5604ZM48.3209 17.8811C48.3209 17.7229 48.3209 17.3276 48.4858 17.0114C48.4858 17.0114 47.7436 17.0114 47.7436 17.3276C47.7436 17.4857 48.1559 17.4857 48.3209 17.8811ZM31.1694 11.5559C30.8396 11.5559 30.4273 11.5559 29.8501 11.3978C30.1799 11.5559 30.5922 12.1094 30.4273 12.2675C30.7571 12.1094 31.1694 11.7141 31.1694 11.5559V11.5559ZM30.015 12.5838C29.6852 12.7419 29.2729 12.5838 29.108 12.4257C29.4378 12.2675 29.4378 12.1094 29.4378 11.8722C29.5203 12.2675 29.6852 12.4257 30.015 12.5838V12.5838ZM28.6132 11.7141L28.7781 11.5559L28.6132 11.7141ZM10.7197 15.7463C10.1425 15.0348 10.5547 14.8766 10.8846 15.0348C11.0495 15.1929 11.0495 15.351 11.2144 15.5882C11.2144 15.4301 11.2144 15.0348 11.5443 14.8766C11.7092 14.8766 11.8741 15.0348 11.8741 15.1929V15.7463C11.8741 15.7463 12.6162 15.7463 12.7811 16.0626C12.6162 16.2207 12.6162 16.0626 11.8741 16.2207C12.2039 16.2207 12.6162 16.7742 12.2039 16.9323C11.8741 17.0904 11.6267 16.7742 11.4618 16.3788C11.4618 16.537 11.6267 16.9323 11.2969 17.0904C11.132 17.0904 10.967 16.9323 10.967 16.7742C10.967 16.616 10.967 16.4579 11.132 16.2207C10.7197 16.4579 10.1425 15.7463 10.7197 15.7463V15.7463ZM29.8501 15.9045C28.943 15.7463 28.036 16.7742 28.036 16.7742C28.2009 15.9045 28.2009 15.9045 28.3658 15.7463C28.5308 15.4301 29.6852 15.5882 29.6852 15.4301V14.8766L30.015 15.0348C30.3448 15.0348 30.3448 14.3232 30.9221 14.1651C31.4993 14.0069 31.8291 14.1651 32.4063 14.3232C31.3344 14.4813 30.5922 15.0348 30.7571 15.5882C30.7571 15.7463 31.087 15.9045 31.087 15.9045L30.1799 16.4579C30.2624 16.616 30.2624 16.1417 29.8501 15.9045V15.9045ZM27.8711 14.7185H28.036V14.5604C28.036 14.5604 27.8711 14.5604 27.8711 14.4022L27.7062 14.086L27.8711 13.9279L28.2009 14.086C28.2009 14.086 28.2009 14.2441 28.3658 14.2441H28.5308C28.5308 14.2441 28.5308 14.086 28.3658 14.086H28.2009L27.6237 13.9279V13.6116L27.9535 13.4535H28.1185C28.1185 13.4535 28.2834 13.4535 28.2834 13.2954C28.2834 13.2954 28.1185 13.1372 28.1185 13.2954C28.1185 13.2954 28.1185 13.4535 27.9535 13.4535L27.6237 13.6116C27.6237 13.4535 27.4588 13.4535 27.4588 13.4535L27.6237 13.1372C27.6237 13.1372 27.7886 13.1372 27.7886 12.9791V12.821H27.6237V12.9791L27.4588 13.2954C27.4588 13.2954 27.2939 13.1372 27.129 13.1372V12.821L27.2939 12.6628C27.2939 12.6628 27.2939 12.5047 27.129 12.5047C27.129 12.5047 26.964 12.5047 26.964 12.6628L27.129 12.821V13.1372C26.964 13.1372 26.964 13.1372 26.7991 13.2954L26.6342 12.9791V12.821H26.4693V12.9791C26.4693 12.9791 26.6342 12.9791 26.6342 13.1372L26.7991 13.4535L26.6342 13.6116L26.3044 13.4535C26.3044 13.4535 26.3044 13.2954 26.1395 13.2954H25.9745C25.9745 13.2954 25.9745 13.4535 26.1395 13.4535H26.3044L26.6342 13.6116V13.9279L26.3044 14.086H26.1395C26.1395 14.086 25.9745 14.086 25.9745 14.2441C25.9745 14.2441 26.1395 14.4022 26.1395 14.2441C26.1395 14.2441 26.1395 14.086 26.3044 14.086L26.6342 13.9279C26.6342 14.086 26.7991 14.086 26.7991 14.086L26.6342 14.4022H26.4693V14.5604H26.6342V14.4022L26.7991 14.086C26.7991 14.086 26.964 14.2441 27.129 14.2441V14.5604L26.964 14.7185C26.964 14.7185 26.964 14.8766 27.129 14.8766C27.129 14.8766 27.2939 14.8766 27.2939 14.7185L27.129 14.5604V14.2441H27.4588L27.6237 14.5604C27.8711 14.5604 27.7062 14.5604 27.8711 14.7185ZM18.5532 15.9045V15.7463L18.2234 15.4301H17.8936V15.7463L18.0585 15.9045C18.0585 15.9045 18.0585 16.0626 17.8936 16.0626C17.7287 16.0626 17.7287 16.0626 17.7287 15.9045C17.7287 15.7463 17.8936 15.7463 17.8936 15.7463V15.4301C17.7287 15.4301 17.7287 15.4301 17.5637 15.272L17.2339 15.5882V15.7463C17.2339 15.7463 17.069 15.9045 17.069 15.7463V15.5882H17.2339L17.5637 15.272L17.3988 15.1138L16.8216 15.272C16.8216 15.272 16.8216 15.4301 16.6567 15.4301H16.4918C16.4918 15.4301 16.4918 15.272 16.6567 15.272H16.8216L17.3988 15.1138V14.7976L16.8216 14.6394H16.6567C16.6567 14.6394 16.4918 14.6394 16.4918 14.4813C16.4918 14.4813 16.6567 14.3232 16.6567 14.4813C16.8216 14.4813 16.8216 14.6394 16.8216 14.6394L17.3988 14.7976C17.3988 14.6394 17.5637 14.6394 17.5637 14.6394L17.2339 14.3232C17.2339 14.3232 17.069 14.3232 17.069 14.1651V14.0069H17.2339V14.1651L17.5637 14.4813C17.7287 14.4813 17.7287 14.3232 17.8936 14.3232V14.0069L17.7287 13.8488C17.7287 13.8488 17.7287 13.6907 17.8936 13.6907C18.0585 13.6907 18.0585 13.6907 18.0585 13.8488C18.0585 14.0069 17.8936 14.0069 17.8936 14.0069V14.3232C18.0585 14.3232 18.0585 14.3232 18.2234 14.4813L18.5532 14.1651V14.0069C18.5532 14.0069 18.7182 13.8488 18.7182 14.0069V14.1651H18.5532L18.2234 14.4813C18.3883 14.4813 18.3883 14.6394 18.3883 14.6394L18.9655 14.4813C18.9655 14.4813 18.9655 14.3232 19.1305 14.3232H19.2954C19.2954 14.3232 19.2954 14.4813 19.1305 14.4813H18.9655L18.3883 14.6394V14.9557L18.9655 15.1138H19.1305C19.1305 15.1138 19.2954 15.1138 19.2954 15.272C19.2954 15.272 19.1305 15.4301 19.1305 15.272C18.9655 15.272 18.9655 15.1138 18.9655 15.1138L18.3883 14.9557C18.3883 15.1138 18.2234 15.1138 18.2234 15.1138L18.5532 15.4301C18.5532 15.4301 18.7182 15.4301 18.7182 15.5882V15.7463C18.5532 16.1417 18.5532 16.1417 18.5532 15.9045ZM15.4198 17.0114C16.1619 17.3276 15.997 17.5648 15.7496 17.7229C15.4198 17.7229 15.4198 17.5648 15.1724 17.4067C15.1724 17.5648 15.3374 17.7229 15.1724 17.9601C15.0075 18.1183 14.8426 17.9601 14.8426 17.802C14.8426 17.802 14.6777 17.6439 14.6777 17.4857C14.6777 17.4857 14.1005 17.802 13.9356 17.6439C13.9356 17.4857 14.2654 17.3276 14.5128 17.0904C14.3478 17.0904 13.7706 16.9323 13.7706 16.9323C13.6057 16.7742 13.7706 16.7742 13.7706 16.7742C14.1005 16.616 14.3478 16.7742 14.6777 16.9323C14.6777 16.7742 14.3478 16.616 14.6777 16.3788H14.8426C15.0075 16.3788 15.0075 16.3788 15.1724 16.537C15.3374 16.6951 15.3374 16.8532 15.3374 16.8532C15.3374 16.6951 15.6672 16.6951 15.6672 16.6951C15.997 16.537 16.2444 16.8532 15.997 17.0114H15.4198V17.0114ZM44.1155 8.23527C44.2804 7.91901 44.4453 7.68182 44.6927 7.68182C44.8576 7.91901 44.6927 8.23527 44.1155 8.23527C44.6927 8.23527 45.0225 8.23527 45.0225 8.39339C45.0225 8.55152 44.6927 8.70965 44.2804 8.39339C44.6102 8.70965 44.6102 9.10497 44.4453 9.10497C44.2804 9.10497 44.1155 8.94684 44.1155 8.39339C43.9505 8.94684 43.7856 8.94684 43.5382 8.94684C43.3733 8.78871 43.3733 8.63059 43.8681 8.23527C43.2909 8.39339 43.126 8.23527 43.126 8.07714C43.126 7.91901 43.4558 7.91901 43.8681 8.07714C43.7032 7.91901 43.5382 7.52369 43.8681 7.36556C43.9505 7.52369 44.1155 7.91901 44.1155 8.23527V8.23527ZM51.949 15.9045C52.2789 15.5882 52.8561 15.351 53.021 15.7463C53.3508 16.0626 52.6912 16.2998 52.114 16.2998C52.6912 16.2998 53.1859 16.616 53.021 17.0114C52.8561 17.4067 52.2789 17.1695 51.949 16.4579C52.2789 17.0114 52.114 17.4857 51.7841 17.3276C51.4543 17.3276 51.2069 16.7742 51.6192 16.2998C51.2894 16.8532 50.7122 16.8532 50.5472 16.616C50.3823 16.2998 50.5472 16.0626 51.4543 16.0626C50.7122 15.9045 50.3823 15.5091 50.5472 15.351C50.7122 15.1929 51.2894 15.351 51.6192 15.6673C51.4543 15.351 51.4543 14.7976 51.949 14.7976C52.3613 15.0348 52.5263 15.4301 51.949 15.9045V15.9045ZM49.5577 12.4257C49.7227 11.8722 50.135 11.7141 50.2999 11.7141C50.6297 11.8722 50.2999 12.2675 49.7227 12.4257C50.2999 12.2675 50.6297 12.2675 50.6297 12.5838C50.6297 12.9 50.0525 12.9 49.7227 12.5838C50.0525 12.9 50.2999 13.4535 49.8876 13.4535C49.5577 13.6116 49.3104 13.2954 49.5577 12.5838C49.3928 13.1372 48.9805 13.4535 48.8156 13.2954C48.4858 13.1372 48.6507 12.7419 49.3928 12.4257C48.8156 12.5838 48.4858 12.4257 48.4858 12.2675C48.4858 11.9513 49.063 11.9513 49.5577 12.1094C49.3928 11.9513 48.9805 11.3978 49.5577 11.2397C49.5577 11.5559 49.8051 11.7141 49.5577 12.4257V12.4257ZM38.8381 8.23527C39.4153 7.68182 40.1574 7.52369 40.4873 7.91901C40.8171 8.47246 39.9101 8.63058 39.1679 8.63058C39.9101 8.78871 40.6522 9.18403 40.2399 9.50029C39.8276 9.81654 39.3329 9.65841 38.7556 8.94684C39.0855 9.65841 38.7556 10.37 38.4258 10.37C37.8486 10.37 37.8486 9.65841 38.4258 8.94684C37.8486 9.65841 37.1065 9.65842 36.9415 9.50029C36.6117 9.18403 36.9415 8.63058 38.2609 8.63058C37.3538 8.47246 36.7766 8.07714 36.9415 7.76088C37.2714 7.44463 37.8486 7.76088 38.4258 8.31433C38.2609 7.99807 38.2609 6.89118 39.003 7.04931C39.1679 6.97024 39.3329 7.52369 38.8381 8.23527ZM28.943 1.5939C29.108 1.27764 29.5203 0.882324 29.6852 1.04045C30.015 1.19858 29.6852 1.5939 29.108 1.75203C29.6852 1.5939 30.015 1.75203 30.015 1.91015C30.015 2.06828 29.6852 2.22641 29.108 1.91015C29.4378 2.22641 29.6852 2.62173 29.2729 2.62173C28.8606 2.62173 28.6957 2.4636 28.6957 1.91015C28.6957 2.4636 28.1185 2.62173 27.9535 2.4636C27.6237 2.30547 27.6237 2.14735 28.2834 1.75203C27.7062 1.91015 27.3763 1.75203 27.3763 1.5939C27.3763 1.43577 27.9535 1.43577 28.4483 1.5939C28.1185 1.43577 27.8711 1.04045 28.2834 0.882324C28.7781 0.882324 28.943 1.19858 28.943 1.5939V1.5939ZM20.6972 5.23084C20.6972 4.91458 19.6252 4.20301 18.8831 4.20301C19.7901 3.88675 20.2024 4.04488 20.2024 4.04488C20.7796 4.20301 20.9446 5.07271 21.2744 4.91458C21.4393 4.91458 21.6042 4.59833 21.6042 4.59833V5.15177C21.6042 5.46803 22.6762 5.15177 23.0885 5.46803C23.0885 5.46803 23.4183 5.78428 23.6657 6.73305C23.0885 5.86335 22.0165 5.46803 21.4393 5.70522C21.2744 5.86335 21.4393 6.25867 21.4393 6.25867C21.2744 5.94241 20.8621 5.70522 20.5323 5.70522C20.3673 5.62616 20.6972 5.46803 20.6972 5.23084V5.23084ZM25.1499 9.10497C25.3149 8.39339 26.057 7.83995 26.4693 8.07714C27.0465 8.39339 26.3044 8.94684 25.5622 9.34216C26.3044 9.18403 27.2114 9.18403 27.2114 9.65842C27.2114 10.1328 26.4693 10.2119 25.5622 9.81654C26.3044 10.37 26.3044 11.0816 25.8921 11.2397C25.3149 11.3978 24.985 10.9234 25.1499 9.97467C24.985 10.8444 24.2429 11.2397 23.8306 11.0025C23.2534 10.8444 23.5008 10.2909 24.7377 9.73748C23.6657 10.0537 23.0885 9.89561 23.0885 9.57935C23.0885 9.2631 23.9955 9.0259 24.7377 9.42122C24.1604 9.2631 23.9955 8.39339 24.5727 8.1562C24.9026 7.68182 25.4798 8.23527 25.1499 9.10497V9.10497ZM17.2339 8.55152C17.069 8.23527 17.069 7.83995 17.2339 7.83995C17.5637 7.83995 17.5637 8.1562 17.3988 8.55152C17.5637 8.23527 17.976 7.99807 18.141 8.23527C18.3059 8.39339 18.141 8.78871 17.3988 8.78871C17.976 8.78871 18.3059 8.94684 18.141 9.34216C17.976 9.50029 17.5637 9.50029 17.2339 9.02591C17.5637 9.34216 17.3988 9.73748 17.2339 9.73748C16.9041 9.73748 16.6567 9.57935 17.069 9.02591C16.7392 9.34216 16.3269 9.57935 16.3269 9.34216C16.3269 8.94684 16.4918 8.78871 17.2339 8.55152C16.6567 8.70965 16.3269 8.55152 16.4918 8.23527C16.4918 8.07714 16.9041 8.07714 17.2339 8.55152ZM9.07049 10.1328C9.07049 9.81654 9.40032 9.42122 9.6477 9.57935C9.89507 9.73748 9.56524 9.97467 9.07049 10.1328C9.6477 10.1328 9.97753 10.1328 9.97753 10.4491C9.97753 10.6072 9.6477 10.7653 9.23541 10.4491C9.56524 10.7653 9.56524 11.1606 9.40032 11.1606C9.23541 11.1606 9.07049 11.0025 9.07049 10.4491C9.07049 11.0025 8.74065 11.1606 8.49328 11.0025C8.32836 10.8444 8.32836 10.6862 8.82311 10.2909C8.49328 10.4491 8.08098 10.2909 8.08098 10.1328C8.08098 9.97467 8.41082 9.97467 8.82311 10.1328C8.65819 9.97467 8.49328 9.42122 8.65819 9.42122C8.82311 9.42122 9.07049 9.65842 9.07049 10.1328V10.1328ZM4.4528 11.0025C4.4528 10.4491 4.78263 10.2909 5.03001 10.2909C5.35984 10.4491 5.03001 10.8444 4.70017 11.0025C5.03001 10.8444 5.60722 10.8444 5.60722 11.1606C5.60722 11.4769 5.27738 11.4769 4.70017 11.3188C5.27738 11.635 5.27738 12.0303 5.03001 12.0303C4.86509 12.1885 4.4528 11.8722 4.4528 11.3188C4.4528 11.8722 4.12296 12.0303 3.87559 12.0303C3.54575 11.8722 3.54575 11.7141 4.20542 11.1606C3.62821 11.3188 3.29837 11.3188 3.29837 11.1606C3.29837 11.0025 3.62821 10.8444 4.20542 11.0025C3.87559 11.0025 3.46329 10.4491 3.87559 10.4491C4.12296 10.37 4.4528 10.5281 4.4528 11.0025V11.0025ZM9.23541 12.821C9.56524 12.1094 10.1425 11.7931 10.5547 12.1094C11.132 12.4257 10.3898 12.9791 9.6477 13.1372C10.3898 12.9791 11.132 13.1372 11.132 13.6907C10.967 14.0069 10.3898 14.2441 9.6477 13.5325C10.2249 14.086 10.2249 14.7976 9.81262 14.7976C9.23541 14.7976 9.07049 14.4813 9.23541 13.5325C9.07049 14.2441 8.32836 14.5604 8.16344 14.4022C7.83361 14.086 7.83361 13.6907 9.07049 13.3744C8.16344 13.5325 7.58623 13.2163 7.58623 12.821C7.75115 12.5047 8.49328 12.5047 9.07049 12.9791C8.74065 12.6628 8.49328 11.9513 9.07049 11.7141C9.07049 11.5559 9.40032 11.8722 9.23541 12.821V12.821ZM3.71067 17.1695C3.38083 17.1695 2.39133 18.0392 2.22641 18.7508C1.89658 18.0392 2.06149 17.7229 2.06149 17.7229C2.22641 17.1695 3.38083 17.0114 3.38083 16.8532C3.38083 16.6951 3.21592 16.2998 3.21592 16.2998L3.79313 16.4579C4.12296 16.4579 3.79313 15.4301 4.37034 15.1929C4.37034 15.1929 4.70017 14.8766 5.8546 14.8766C4.94755 15.1929 4.37034 16.2998 4.53526 16.7742C4.70017 16.9323 5.11247 16.9323 5.11247 16.9323C4.78263 17.0904 4.53526 17.4857 4.37034 17.802C4.12296 17.8811 3.95804 17.1695 3.71067 17.1695V17.1695ZM32.5712 6.81212C32.4063 6.65399 30.9221 7.36556 30.9221 7.36556C31.087 7.04931 31.2519 6.49586 31.2519 6.49586C31.5817 6.33773 32.1589 6.49586 32.3239 6.33773V6.02148L32.6537 6.1796C32.8186 6.1796 33.2309 5.62616 33.5607 5.62616C33.5607 5.62616 34.138 5.94241 34.6327 5.94241C33.8906 5.94241 32.9835 6.25867 32.9835 6.65399C32.9835 6.81212 33.3134 6.97024 33.3134 6.97024L32.4063 7.2865C32.5712 7.36556 32.8186 6.97024 32.5712 6.81212V6.81212ZM46.3418 7.68182C47.4138 8.94684 47.991 8.39339 48.7332 9.10497C48.7332 8.55152 48.1559 7.83995 48.1559 7.68182C49.4753 8.39339 49.6402 8.55152 49.2279 9.2631C49.063 9.81654 49.97 9.10497 50.5472 9.81654C50.2174 9.81654 49.97 9.97467 49.6402 10.1328C48.7332 10.4491 48.3209 9.97467 47.8261 10.2909L47.2489 10.1328C47.2489 10.1328 48.1559 9.97467 48.1559 9.81654C48.3209 9.65842 46.3418 9.65842 46.3418 7.68182V7.68182ZM19.048 8.55152C18.7182 7.83995 18.3059 7.83995 18.141 7.99807C17.8111 8.31433 18.4708 8.70965 18.8831 8.86778C18.141 8.86778 17.8111 9.18403 17.976 9.57935C18.141 9.97467 18.7182 9.73748 19.048 9.2631C18.4708 10.1328 18.8831 10.5281 19.2129 10.5281C19.3778 10.5281 19.7901 9.97467 19.3778 9.50029C19.7077 10.2119 20.2849 10.37 20.4498 10.0537C20.6147 9.73748 20.2849 9.34216 19.5428 9.18403C20.2849 9.18403 20.6147 8.86778 20.4498 8.47246C20.2849 8.07714 19.7077 8.31433 19.3778 8.78871C19.7077 8.23527 19.7077 7.76088 19.3778 7.76088C18.8831 7.52369 18.7182 7.91901 19.048 8.55152V8.55152ZM33.4783 11.7141C33.1484 11.1606 32.5712 10.6862 31.8291 10.8444C31.6642 10.8444 31.4993 11.0025 31.2519 11.1606C31.2519 11.0025 30.6747 10.6072 29.7676 11.0025C30.0975 10.6862 30.5098 9.73748 29.9326 9.57935C29.6027 9.42122 29.1904 10.1328 29.0255 10.8444C28.8606 10.1328 28.2834 9.57935 27.9535 9.81654C27.6237 10.0537 27.7886 10.6862 28.2834 11.0816C27.5412 11.0816 27.2114 11.0816 26.7991 11.3978C26.7991 11.5559 26.6342 11.7141 26.964 11.9513C26.6342 11.9513 26.3868 11.9513 26.2219 12.1094C26.057 12.1094 25.6447 12.1094 25.6447 12.6628C25.6447 13.2163 25.3149 12.9791 25.3149 12.821C25.4798 12.2675 25.4798 11.5559 25.4798 11.5559C24.9026 11.7141 24.5727 12.5838 24.5727 13.2954C24.5727 13.4535 24.4078 13.4535 24.4078 13.2954C24.5727 12.4257 24.2429 11.8722 23.8306 11.5559C23.8306 11.7141 23.8306 11.7141 23.6657 11.8722C23.6657 11.7141 23.5008 11.5559 23.3359 11.5559C23.5008 12.4257 23.1709 12.5838 23.5008 13.4535C22.7586 13.2954 23.1709 12.4257 22.4288 12.0303C22.4288 12.3466 21.8516 12.5838 21.6867 12.3466C21.8516 12.3466 22.2639 12.1885 22.2639 12.0303C22.099 11.8722 21.9341 11.8722 21.5218 11.8722C21.6867 11.8722 21.8516 11.7141 22.099 11.5559C21.7691 11.5559 21.7691 11.2397 21.9341 11.0025H21.6042V10.6862C21.6042 10.6862 21.4393 10.6862 21.4393 10.8444V10.5281C21.2744 10.5281 21.2744 10.6862 21.1095 10.8444V10.5281C20.7796 10.6862 20.7796 11.0816 20.5323 11.2397C20.5323 11.0816 20.3673 10.9234 20.3673 10.9234C20.3673 10.9234 20.2024 11.0816 20.2024 11.4769C20.2024 11.4769 20.2024 11.1606 20.0375 11.1606C19.8726 11.4769 19.8726 11.8722 20.2024 12.4257C20.3673 12.5838 20.5323 12.5838 20.5323 12.7419C20.6972 13.4535 19.4603 13.6116 19.4603 13.6116C19.7901 13.2954 20.2024 12.7419 20.0375 12.3466C19.7077 12.3466 19.4603 12.6628 19.2954 12.9C19.2954 12.7419 19.4603 12.1885 19.4603 11.8722C19.1305 12.0303 18.8831 12.4257 18.8831 12.5838C18.8831 12.2675 18.8831 12.2675 18.7182 12.0303C18.3883 11.7141 17.3988 11.4769 17.069 12.5838C17.069 12.4257 16.4918 12.2675 16.4918 12.2675C16.4918 12.5838 16.6567 12.9791 16.8216 13.1372C16.4918 12.5838 16.0795 12.4257 15.9146 12.4257C15.9146 12.7419 16.2444 13.1372 16.4918 13.4535C15.7496 12.7419 15.1724 13.2954 15.1724 13.6116C15.1724 12.9 14.5952 12.5838 14.5952 12.5838C13.8531 13.4535 14.2654 14.1651 14.4303 14.3232C14.2654 15.0348 13.3583 14.6394 13.6882 14.1651C13.8531 14.0069 13.5233 13.4535 12.7811 14.0069C13.6882 13.2954 12.2039 12.7419 12.2039 13.8488C12.039 12.821 10.5547 13.6907 11.6267 14.1651C10.5547 13.8488 10.3074 15.0348 11.6267 14.7185C11.4618 14.8766 11.2969 15.272 11.6267 15.4301C11.9565 15.5882 12.2039 15.1138 12.2039 14.8766C12.3688 15.1929 12.7811 15.4301 13.111 15.1929C13.2759 15.0348 13.4408 15.1929 13.4408 15.351C13.4408 15.5091 13.2759 15.6673 12.6987 15.5091C12.8636 16.3788 12.1215 16.537 11.7916 16.0626C11.6267 15.7463 10.4723 15.5091 10.4723 15.5091C10.6372 16.0626 9.73016 17.0904 9.15295 16.537C8.98803 16.3788 9.31786 15.9835 9.31786 15.9835C9.89508 15.4301 7.99852 15.1138 7.99852 15.8254C7.83361 15.8254 7.42131 15.6673 7.25639 15.8254C7.58623 15.6673 7.83361 14.9557 7.58623 14.9557C7.2564 14.7976 6.8441 15.272 6.8441 15.6673C6.8441 15.1138 6.51427 14.6394 6.10197 14.7976C5.77214 14.9557 5.93705 15.5091 6.26689 15.8254C5.68968 15.6673 5.19493 15.5091 5.19493 15.8254C5.03001 16.1417 5.93705 16.3788 6.26689 16.1417C5.93705 16.4579 5.68968 17.1695 6.10197 17.1695C6.43181 17.3276 6.8441 17.0114 6.8441 16.4579C6.8441 16.616 6.8441 16.7742 7.00902 17.0114C6.8441 17.1695 6.67918 17.5648 6.26689 17.7229C5.52476 18.0392 5.19493 17.8811 5.19493 18.4345C5.19493 18.7508 5.93705 18.7508 6.51427 18.2764C7.25639 17.5648 7.83361 18.8298 7.09148 19.1461C6.92656 19.3042 6.51427 19.1461 6.34935 18.988C5.4423 18.8298 5.4423 19.5414 6.34935 20.0158L26.964 33.6938L46.1769 20.5692C46.3418 20.4111 46.5068 20.253 46.9191 20.0158L48.2384 20.1739C48.2384 20.1739 47.9086 19.8577 48.0735 19.4623C48.2384 19.067 48.9805 18.7508 50.6297 19.1461C50.0525 18.4345 49.8876 18.2764 49.8876 18.2764C49.3104 18.1183 48.9805 18.4345 48.4033 18.4345C48.4033 18.2764 48.2384 18.2764 48.0735 18.2764L47.7436 17.9601C47.7436 17.9601 47.7436 18.1183 47.4138 18.5136C46.6717 18.6717 45.7646 18.8298 45.9296 18.3554C45.9296 17.802 46.0945 17.802 46.6717 17.802C46.8366 17.802 47.2489 17.802 47.5787 17.6439C47.5787 17.6439 47.7436 17.6439 47.7436 17.4857C47.7436 17.6439 47.9086 17.802 48.3209 17.6439C48.7332 17.4857 48.6507 17.0904 48.4858 16.616C48.6507 16.9323 49.3928 17.4857 49.5577 17.3276C49.7227 17.1695 49.3928 16.616 48.8156 16.2998C48.8156 16.2998 49.8876 16.2998 49.8876 15.7463C49.8876 15.1929 48.8156 15.5882 48.5682 15.7463C48.7332 15.4301 48.7332 14.7185 48.4033 14.7185C48.0735 14.7185 47.8261 15.4301 48.0735 15.7463C47.9086 15.0348 47.1664 14.7185 47.0015 15.0348C46.8366 15.351 47.3314 15.9045 47.7436 16.0626C46.8366 16.2207 46.6717 16.9323 45.7646 16.7742C46.3418 16.4579 46.5068 15.9045 46.0945 15.7463C45.9296 15.4301 45.1874 15.5882 45.0225 16.2998C45.0225 15.7463 44.6927 15.5882 44.4453 15.7463C44.2804 15.9045 44.4453 16.2998 44.2804 16.4579H44.4453C45.0225 16.4579 44.6102 17.1695 44.1155 17.7229C44.6927 17.1695 45.5997 17.0114 45.5997 17.4067C45.7646 17.7229 45.0225 18.2764 44.1155 18.1183C44.8576 18.2764 45.1874 18.8298 44.8576 19.1461C44.5278 19.4623 43.9505 19.1461 43.7856 18.4345C43.9505 19.1461 43.4558 19.6995 43.0435 19.6995C42.4663 19.6995 42.3014 19.3833 43.3733 18.2764C42.6312 18.988 41.8891 18.988 41.8891 18.5926C41.8891 18.2764 42.4663 17.8811 43.3733 17.8811C42.7961 17.8811 42.3014 17.3276 42.7961 16.8532C43.126 16.6951 43.7032 16.6951 43.7032 17.5648C43.7032 17.2485 43.7032 16.8532 43.8681 16.6951C44.1979 16.1417 44.1979 15.4301 44.033 15.272C43.8681 15.5882 43.126 15.5882 43.126 15.5882C42.3838 15.9045 42.3838 16.4579 42.2189 15.7463C42.054 15.1929 42.7961 15.1929 43.126 15.1929L43.2909 15.5091C44.1979 14.9557 44.6102 15.8254 46.012 15.351C46.7541 15.1929 46.9191 14.7976 47.4963 15.0348C46.9191 14.1651 45.5173 14.8766 45.8471 14.1651C46.4243 13.2954 46.1769 12.9 44.5278 11.7141C44.6927 11.8722 45.2699 12.9791 45.105 13.6116C44.3628 12.3466 43.4558 13.0582 41.9715 11.1606C41.9715 13.9279 44.5278 13.9279 44.3628 14.3232C44.3628 14.4813 43.7856 14.6394 43.4558 14.6394V14.4813C43.4558 14.3232 43.126 13.6116 42.3838 13.4535C41.8066 13.2954 41.3119 13.6116 40.8996 14.0069C40.3224 14.7185 38.5083 14.5604 38.9206 13.8488C39.0855 13.6907 39.4978 13.8488 39.6627 13.6907C39.4978 13.6907 39.6627 13.5325 39.3329 13.3744C39.4978 13.3744 39.6627 13.2163 39.6627 13.2163C39.4978 13.2163 39.3329 13.2163 39.3329 13.0582C39.3329 13.0582 39.6627 13.0582 39.6627 12.9C39.6627 12.5838 38.9206 12.7419 39.0855 12.5838C39.4153 12.4257 39.0855 12.0303 38.9206 12.0303C38.5907 12.1885 38.1784 12.3466 37.8486 12.3466C37.8486 12.3466 38.5907 12.0303 38.9206 11.3188C38.3433 11.3188 38.5907 10.7653 38.7556 10.7653C38.0135 10.7653 37.4363 12.0303 37.1065 12.0303C37.4363 11.3188 37.4363 10.7653 37.4363 10.4491C37.1065 10.6072 36.6942 11.3188 36.5293 11.7141C36.5293 12.0303 36.1994 12.0303 36.1994 11.7141C36.0345 11.0025 35.6222 10.6862 35.4573 10.6862C35.2924 10.8444 35.2924 11.2397 35.2924 11.7141C35.1275 11.1606 34.9625 11.0025 34.7152 10.8444C33.973 11.5559 33.973 12.4257 33.973 12.4257C34.138 12.1094 34.5502 12.1094 34.7152 12.1094C35.045 12.2675 34.7152 12.821 33.973 12.9791C34.5502 12.821 35.2924 12.821 35.2924 13.1372C35.2924 13.4535 34.7152 13.6907 33.973 13.1372C34.5502 13.4535 34.5502 14.0069 34.138 14.1651C33.7257 14.3232 33.3958 14.0069 33.5607 13.2954C33.3958 14.0069 32.8186 14.1651 32.6537 14.1651C32.3239 14.0069 32.3239 13.6116 33.3958 13.1372C32.6537 13.2954 32.0765 13.1372 32.0765 12.9791C32.0765 12.6628 32.8186 12.6628 33.3958 12.821C33.3134 12.4257 33.1484 11.8722 33.4783 11.7141V11.7141ZM28.943 7.20743C29.108 7.52369 28.3658 7.91901 28.3658 7.91901L29.6852 8.47246C29.6852 8.47246 29.6852 7.91901 29.8501 7.76088C30.1799 7.20744 31.4993 7.91901 32.5712 8.63058C32.2414 7.76088 31.8291 7.04931 31.8291 7.04931C31.2519 6.49586 30.1799 7.04931 30.015 6.89118V6.33773C30.015 6.33773 29.6852 6.65399 29.4378 6.65399C29.108 6.49586 28.5308 5.62616 27.7886 5.62616C27.7886 5.62616 27.0465 5.94241 26.3044 6.1796C26.3868 5.94241 28.6132 6.49586 28.943 7.20743V7.20743ZM38.4258 4.91458C38.7556 4.75645 39.3329 4.75645 39.3329 4.91458C39.3329 5.23084 39.003 5.23084 38.4258 5.07271C38.7556 5.23084 39.1679 5.62616 38.7556 5.78429C38.5907 5.94241 38.1784 5.78428 38.0135 5.23084C38.0135 5.78428 37.8486 5.94241 37.4363 5.94241C37.2714 5.78428 37.2714 5.38897 37.6012 5.23084C37.024 5.38897 36.6942 5.38897 36.6942 5.23084C36.6942 4.91458 36.8591 4.67739 37.6012 5.07271C37.024 4.91458 36.8591 4.51926 37.024 4.36114C37.1889 4.20301 37.6012 4.51926 37.7661 4.91458C37.7661 4.59833 37.9311 4.20301 38.3433 4.36114C39.003 4.36114 39.003 4.75645 38.4258 4.91458V4.91458ZM10.7197 9.2631C11.6267 11.3978 13.4408 10.6862 13.4408 10.8444C13.4408 11.1606 12.5338 11.5559 12.5338 11.5559L12.8636 11.8722C13.1934 11.1606 13.9356 11.7141 14.8426 11.0025C15.1724 10.6862 15.4198 10.2909 15.7496 10.2909C15.0075 9.73748 14.1005 10.6072 14.2654 10.1328C14.4303 9.2631 14.2654 9.10497 12.6162 8.70965C12.7811 8.86778 13.5233 9.42122 13.6882 9.97467C12.6987 9.42122 12.2864 10.37 10.7197 9.2631Z" fill="#0065C1"/>
<path id="Vector_2" d="M118.081 42.0746H116.102L115.525 43.814H114.205L116.432 37.4889H117.916L120.142 43.814H118.823L118.081 42.0746V42.0746ZM116.432 41.1258H117.916L117.174 38.6749L116.432 41.1258V41.1258ZM156.672 37.4889H157.991V41.2049C157.991 42.4699 158.568 42.9443 159.31 42.9443C160.217 42.9443 160.795 42.3909 160.795 41.2049V37.4889H162.114V41.2049C162.114 43.1024 161.042 43.9721 159.558 43.9721C158.073 43.9721 157.001 43.1024 157.001 41.2049V37.4889H156.672ZM151.889 42.9443C152.961 42.9443 153.703 41.9165 153.703 40.4933C153.703 39.2283 153.126 38.2005 151.889 38.2005C150.652 38.2005 150.075 39.2283 150.075 40.6514C150.075 41.8374 150.57 42.9443 151.889 42.9443ZM151.889 43.814C150.075 43.814 148.756 42.3909 148.756 40.6514C148.756 38.7539 150.075 37.3308 151.889 37.3308C153.868 37.3308 155.022 38.7539 155.022 40.4933C155.022 42.549 153.703 43.814 151.889 43.814V43.814ZM141.994 37.4889H143.313V39.9399H146.034V37.3308H147.354V43.6559H146.034V40.8886H143.313V43.6559H141.994V37.4889ZM135.48 43.814V43.1024L138.943 38.3586H135.81V37.3308H140.592V38.0423L137.294 42.7862H140.757V43.814H135.48V43.814ZM133.995 40.2561V43.4187C133.666 43.5768 132.676 43.7349 131.769 43.7349C130.697 43.7349 129.79 43.4187 129.213 42.8652C128.636 42.3118 128.306 41.4421 128.306 40.5724C128.306 38.4377 129.79 37.2517 131.934 37.2517C132.676 37.2517 133.418 37.4098 133.748 37.568L133.583 38.5167C133.253 38.3586 132.841 38.2005 132.099 38.2005C130.615 38.2005 129.708 39.0702 129.708 40.4933C129.708 41.9165 130.615 42.7862 132.099 42.7862C132.429 42.7862 132.841 42.7862 133.006 42.628V41.0468H131.687V40.098H133.913V40.2561H133.995ZM107.526 37.4889H108.846V39.9399H111.567V37.3308H112.886V43.6559H111.567V40.8886H108.846V43.6559H107.526V37.4889V37.4889ZM99.4453 43.814V37.4889H103.321V38.3586H100.765V40.098H103.156V40.9677H100.765V43.5768H99.4453V43.814V43.814ZM94.7451 42.9443C95.8171 42.9443 96.5592 41.9165 96.5592 40.4933C96.5592 39.2283 95.982 38.2005 94.7451 38.2005C93.5082 38.2005 92.931 39.2283 92.931 40.6514C92.8485 41.8374 93.5907 42.9443 94.7451 42.9443ZM94.7451 43.814C92.931 43.814 91.6117 42.3909 91.6117 40.6514C91.6117 38.7539 92.931 37.3308 94.7451 37.3308C96.7241 37.3308 97.8785 38.7539 97.8785 40.4933C97.7961 42.549 96.5592 43.814 94.7451 43.814V43.814ZM83.2009 43.814V37.4889H84.2728V40.4933L86.4992 37.4889H87.9835L85.7571 40.2561L88.1484 43.7349H86.6641L85.015 41.1258L84.2728 42.1537V43.7349H83.2009V43.814ZM72.6462 42.0746H70.6671L70.0899 43.814H68.7706L70.997 37.4889H72.4812L74.7076 43.814H73.3883L72.6462 42.0746V42.0746ZM70.7496 41.1258H72.2339L71.4917 38.6749L70.7496 41.1258V41.1258ZM64.2354 40.8096V42.9443H64.9775C65.7196 42.9443 66.4617 42.628 66.4617 41.9165C66.4617 41.2049 65.7196 40.8886 64.9775 40.8886H64.2354V40.8096V40.8096ZM64.2354 38.2005V39.9399H64.8126C65.7196 39.9399 66.1319 39.6236 66.1319 39.0702C66.1319 38.5167 65.5547 38.2005 64.8126 38.2005H64.2354ZM66.9565 43.2606C66.3793 43.5768 65.6372 43.814 64.4003 43.814H62.916V37.3308H64.7301C65.6372 37.3308 66.2144 37.4889 66.5442 37.647C66.874 37.8051 67.2863 38.3586 67.2863 38.912C67.2863 39.4655 66.9565 39.9399 66.2144 40.3352C66.9565 40.4933 67.5337 41.0468 67.5337 41.9165C67.4512 42.549 67.2863 42.9443 66.9565 43.2606ZM80.0674 37.4889H81.1394V43.814H79.8201L76.934 39.0702V43.6559H75.862V37.3308H77.3463L80.0674 41.6793V37.4889ZM125.585 37.4889H126.657V43.814H125.337L122.616 39.0702V43.6559H121.544V37.3308H123.028L125.75 41.6793V37.4889H125.585V37.4889ZM91.9415 27.685H89.2204L90.2923 19.3042H93.0959L91.9415 27.685Z" fill="#717071"/>
<path id="Vector_3" d="M93.4259 15.0348H96.1471V19.3834H98.5384L99.8577 25.3131V14.9558H102.579V19.3043H104.97L106.619 25.2341V14.8767H109.505V33.773H106.619V27.606H104.228L102.579 21.6762V33.773H99.8577V27.606H97.4664L96.1471 21.6762V25.7085C96.1471 28.1594 95.5699 31.6383 93.5909 33.6149H90.7048L90.8697 33.4567C92.5189 31.322 93.4259 28.871 93.4259 26.2619V15.0348V15.0348ZM70.0901 27.5269L69.1006 24.8388V33.773H66.2146V24.5225L64.2355 30.8476H61.8442L65.4724 19.6205H62.5864V17.8811H66.2146V15.0348H69.1006V17.8811H71.1621V19.6205H69.5129L72.399 27.5269H70.0901ZM73.306 22.3878C73.306 20.9646 73.6358 20.2531 74.7903 20.2531H80.9747C82.294 20.2531 82.6238 20.9646 82.6238 21.9925V31.7964H83.9432V33.5358H81.387C80.315 33.5358 79.7378 33.2195 79.7378 31.7964V21.9134H76.1096V28.2385C76.1096 29.8198 75.7798 32.2708 74.6253 33.6939H71.7393L71.9042 33.5358C72.8113 32.1126 73.3885 30.3732 73.3885 28.6338V22.3878H73.306ZM75.8622 15.0348H78.9957L79.3255 16.8533H83.9432V18.5927H71.9042V16.8533H76.2745L75.8622 15.0348ZM127.976 20.8065V23.2575H133.254V20.8065H127.976V20.8065ZM127.976 17.0114V19.1462H133.254V17.0114H127.976ZM133.089 15.272H134.903C135.81 15.272 136.222 15.8255 136.222 16.6952V25.076H131.852L133.336 27.8432L134.078 26.1038H136.799L134.82 30.6895L136.305 33.6939H133.418L128.636 24.9178H127.811V31.9545H130.367V33.6939H126.492C125.173 33.6939 125.008 33.1405 125.008 32.1126V16.6952C125.008 15.6673 125.585 15.272 126.492 15.272H133.089V15.272ZM124.266 24.6806V26.42H120.967V32.3498H123.688V33.773H119.813C118.906 33.773 118.164 33.2195 118.164 32.1917V26.42H115.937V24.6806H118.164V22.2297H116.267V21.5181H115.195L117.421 14.8767H119.978L119.4 16.6161H124.513V18.3555H118.823L118.081 20.2531H124.513V21.9925H121.215V24.4434H124.348V24.6806H124.266ZM144.385 33.773V27.1316H141.499L146.777 20.174H150.075L147.354 23.8109V33.773H144.385ZM151.147 15.5883H162.114V17.723H151.147V15.5883ZM162.856 22.7831H160.465V31.8754C160.465 32.7451 160.135 33.773 158.651 33.773H153.538V31.8754H157.167V22.7831H150.075V20.8856H162.856V22.7831V22.7831ZM144.55 21.5181H141.252L146.035 15.272H149.168L144.55 21.5181Z" fill="#717071"/>
<path id="Vector_4" d="M28.4482 41.6002C28.4482 42.9443 27.7886 44.2884 26.3043 44.2884C24.5727 44.2884 23.9955 42.8653 23.9955 41.6002C23.9955 40.2561 24.5727 38.9121 26.3043 38.9121C27.7886 38.9121 28.4482 40.3352 28.4482 41.6002ZM23.1709 44.8418H23.913V43.6559C24.3253 44.5256 25.2324 45.079 26.3043 45.079C28.3658 45.079 29.2728 43.4978 29.2728 41.6793C29.2728 39.8608 28.2833 38.2795 26.3043 38.2795C25.3148 38.2795 24.3253 38.7539 23.9955 39.7027V36.0658H23.1709V44.8418ZM34.7976 42.3118C34.7976 43.3396 33.8905 44.2884 32.4887 44.2884C31.7466 44.2884 31.0045 43.814 31.0045 43.1024C31.0045 41.6002 32.2414 41.5212 33.5607 41.284C34.0554 41.2049 34.6327 40.9677 34.7151 40.8887L34.7976 42.3118ZM30.5922 39.3864C30.5922 39.3864 31.6641 38.9911 32.9835 38.9911C33.973 38.9911 34.6327 39.2283 34.6327 39.8608C34.6327 40.3352 34.1379 40.4933 32.5712 40.7305C31.0869 40.9677 30.0974 41.5212 30.0974 42.9443C30.0974 44.2093 31.1694 45 32.4063 45C33.6431 45 34.3853 44.4465 34.7976 43.735V44.8418H35.5397V40.3352C35.5397 38.5958 34.3028 38.2795 33.0659 38.2795C31.4992 38.2795 30.5097 38.7539 30.5097 38.7539L30.5922 39.3864ZM8.57568 44.8418H10.0599V41.0468C10.0599 40.098 10.7196 39.3864 11.7091 39.3864C12.5337 39.3864 12.946 39.7818 13.0285 40.8096V44.8418H14.5127V40.4933C14.5127 39.0702 13.6057 38.3586 12.1214 38.3586C11.2144 38.3586 10.5547 38.6749 10.1424 39.1493V36.1448H8.65814V44.8418H8.57568ZM15.9145 39.5446H19.5427L15.8321 43.814V44.8418H21.6866V43.735H17.8111L21.5217 39.4655V38.4377H15.9145V39.5446ZM36.859 44.8418H37.6836V41.1258C37.6836 39.8608 38.5082 38.9121 39.7451 38.9121C41.0644 38.9121 41.3943 39.7027 41.3943 40.8096V44.7628H42.2189V40.6515C42.2189 39.1493 41.6417 38.2005 39.8276 38.2005C38.9205 38.2005 38.0135 38.7539 37.6836 39.4655V38.3586H36.859V44.8418ZM43.5382 44.8418H44.3628V42.3909L45.5997 41.363L48.2384 44.8418H49.3103L46.2593 40.8096L49.0629 38.4377H47.991L44.3628 41.5212V35.9867H43.5382V44.8418Z" fill="#717071"/>
</g>
</svg>
