<svg width="172" height="30" viewBox="0 0 172 30" fill="none" xmlns="http://www.w3.org/2000/svg">
<g id="&#229;&#133;&#180;&#228;&#184;&#154;&#233;&#147;&#182;&#232;&#161;&#140; (1) 2">
<path id="Vector" d="M56.0719 14.6667C56.0719 9.00004 48.1599 4.33337 38.3559 4.33337C30.4439 4.33337 23.9079 7.33337 21.4999 11.3334C21.3279 11.6667 21.1559 12.1667 21.1559 12.5C21.1559 13.5 21.8439 14.5 22.8759 15L31.8199 20C32.3359 20.1667 32.8519 20.3334 33.3679 20.3334C33.8839 20.3334 34.5719 20.1667 34.9159 20L43.5159 15.1667C44.0319 14.8334 44.3759 14.3334 44.3759 13.8334C44.3759 13.3334 44.0319 12.8334 43.5159 12.5L40.4199 10.6667L33.3679 14.6667L28.0359 11.6667C30.0999 9.83337 33.8839 8.66671 38.3559 8.66671C44.8919 8.66671 50.224 11.3334 50.224 14.6667C50.052 19.8334 42.3119 23.8334 32.8519 23.5C23.3919 23.3334 15.8239 18.8334 15.9959 13.6667C15.9959 6.83337 25.2839 1.50004 36.4639 1.50004C37.4959 1.50004 38.5279 1.50004 39.3879 1.66671C37.1519 0.833375 34.2279 0.333374 30.9599 0.333374C28.3799 0.333374 26.1439 0.666707 24.0799 1.16671C15.9959 3.83337 10.3199 8.83337 10.3199 14.6667C10.3199 22.5 20.6399 28.8334 33.1959 28.8334C45.9239 29 56.0719 22.6667 56.0719 14.6667V14.6667ZM63.2959 11.1667L64.844 11.3334H76.712C77.056 10.5 77.228 9.66671 77.572 9.00004C77.744 8.33337 78.088 7.50004 78.26 6.83337L78.7759 4.33337C78.9479 3.50004 79.1199 2.83337 79.1199 2.66671L79.292 1.66671V1.50004C79.292 1.33337 79.4639 1.33337 79.8079 1.50004C79.8079 1.50004 80.152 1.66671 80.668 1.83337C81.184 2.00004 81.7 2.33337 82.388 2.50004C82.904 2.83337 83.2479 3.00004 83.4199 3.16671V3.50004C83.4199 3.50004 83.076 3.66671 82.56 3.83337C82.216 4.50004 81.8719 5.16671 81.5279 5.66671C81.1839 6.33337 79.98 8.16671 77.916 11.3334H80.4959C81.0119 10.6667 81.356 10.1667 81.7 9.83337C82.044 9.50004 82.216 9.33337 82.388 9.33337C82.56 9.33337 82.7319 9.50004 83.0759 9.66671C83.7639 10.1667 84.2799 10.6667 84.4519 11C84.7959 11.3334 84.7959 11.6667 84.7959 11.6667C84.7959 11.6667 84.6239 11.8334 84.4519 11.8334H63.812L63.2959 11.1667V11.1667ZM69.144 18.1667C68.112 18.8334 66.564 19.6667 64.844 20.3334L63.9839 20.6667H63.6399C63.6399 20.5 63.64 20.5 63.812 20.3334L64.6719 19.8334C64.8439 19.6667 65.1879 19.5 65.5319 19.1667C65.8759 18.8334 66.392 18.3334 67.08 17.8334C67.768 17.1667 68.2839 16.5 68.6279 15.8334C69.1439 15.1667 69.3159 14.6667 69.4879 14.3334L69.8319 13.6667C69.8319 13.5 70.004 13.5 70.004 13.3334H70.1759C70.6919 13.6667 71.3799 14 72.2399 14.3334C72.9279 14.8334 73.444 15 73.272 15.1667C73.272 15.3334 73.272 15.3334 73.1 15.5H72.412C71.38 16.5 70.176 17.3334 69.144 18.1667V18.1667ZM75.8519 14C76.5399 14.1667 77.228 14.3334 77.744 14.3334C78.432 14.5 79.1199 14.8334 80.1519 15.1667C81.1839 15.5 81.872 16 82.388 16.6667C82.904 17.3334 83.248 17.8334 83.248 18.3334C83.248 18.8334 83.248 19.3334 82.904 19.6667C82.56 20 82.216 20.1667 81.7 20.1667C81.184 20.1667 80.84 20 80.668 19.6667C80.496 19.3334 80.1519 19 79.8079 18.3334C79.4639 17.6667 79.12 17.1667 78.604 16.5C78.088 16 77.744 15.5 77.4 15.3334C77.056 15 76.7119 14.6667 76.1959 14.5C75.6799 14.1667 75.508 14.1667 75.336 14C75.164 14 75.1639 13.8334 75.1639 13.8334V13.6667C75.1639 13.6667 75.3359 13.5 75.5079 13.6667L75.8519 14V14ZM72.068 2.00004C73.444 3.16671 74.3039 4.00004 74.8199 4.66671C75.3359 5.33337 75.68 6.16671 75.68 6.83337C75.852 7.66671 75.6799 8.16671 75.5079 8.66671C75.3359 9.00004 75.1639 9.16671 74.8199 9.50004C74.4759 9.66671 74.132 9.83337 73.616 9.66671C73.1 9.66671 72.7559 9.33337 72.5839 9.00004C72.4119 8.66671 72.412 8.16671 72.412 8.00004C72.412 8.00004 72.4119 7.66671 72.5839 7.33337C72.5839 7.00004 72.756 6.66671 72.756 6.16671V5.00004C72.584 4.16671 72.4119 3.50004 72.2399 3.16671L71.724 2.16671C71.552 2.00004 71.552 1.83337 71.38 1.66671V1.50004V1.33337H71.5519L72.068 2.00004V2.00004ZM66.736 2.83337C67.08 3.00004 67.4239 3.33337 67.9399 3.66671C68.4559 4.00004 68.972 4.66671 69.66 5.33337C70.348 6.16671 70.692 7.00004 70.692 7.83337C70.692 8.83337 70.5199 9.33337 70.1759 9.66671C69.8319 10 69.316 10.1667 68.8 10.1667C68.284 10.1667 67.94 10 67.768 9.66671C67.596 9.33337 67.424 9.00004 67.424 8.83337C67.424 8.50004 67.4239 8.16671 67.5959 7.66671V6.00004C67.5959 5.50004 67.4239 5.00004 67.2519 4.66671C67.0799 4.33337 66.9079 3.83337 66.5639 3.50004C66.2199 3.16671 66.0479 2.83337 66.0479 2.83337L65.8759 2.66671V2.50004H66.0479L66.736 2.83337V2.83337ZM89.268 19.6667L90.816 19.8334H95.804V4.50004L95.632 1.50004C95.632 1.33337 95.976 1.33337 96.148 1.33337C97.352 1.50004 98.04 1.66671 98.556 1.83337C99.072 2.00004 99.244 2.16671 99.072 2.33337C99.072 2.50004 98.728 2.66671 98.212 3.00004V20H100.448V1.66671C100.448 1.50004 100.792 1.50004 100.964 1.50004C102.168 1.66671 102.856 1.83337 103.2 1.83337C103.544 2.00004 103.716 2.00004 103.716 2.16671C103.716 2.33337 103.888 2.33337 103.716 2.50004C103.716 2.66671 103.372 2.83337 103.028 3.16671V15C103.2 14.5 103.372 14.1667 103.544 14C103.716 13.6667 103.888 13.1667 104.06 12.5C104.404 11.8334 104.576 11.1667 104.748 10.5C104.92 10 105.092 9.33337 105.264 8.66671C105.436 8.00004 105.608 7.50004 105.608 7.33337L105.78 6.50004L105.952 5.83337C106.124 5.66671 106.296 5.66671 106.468 5.83337L107.672 6.33337L108.704 6.83337C109.048 7.00004 109.22 7.16671 109.22 7.33337V7.50004C109.048 7.66671 108.876 7.66671 108.36 7.83337C107.328 9.66671 106.296 11.3334 105.608 12.5C104.92 13.6667 104.404 14.5 103.888 15L103.2 16.6667V19.6667H105.608C106.124 19 106.468 18.6667 106.812 18.3334C106.984 18 107.156 17.8334 107.328 17.8334C107.5 17.8334 107.672 18 108.016 18.1667L108.704 18.8334L109.392 19.5C109.736 19.8334 109.908 20 109.736 20C109.736 20.1667 109.564 20.1667 109.392 20.1667H89.956L89.268 19.6667ZM91.332 6.83337C92.192 7.83337 92.8799 8.66671 93.3959 9.33337C93.9119 10.1667 94.256 10.8334 94.6 11.6667C94.944 12.5 95.116 13.1667 95.116 13.8334C95.116 14.5 94.944 15 94.6 15.3334C94.256 15.6667 93.912 15.8334 93.224 15.8334C92.708 15.8334 92.364 15.6667 92.192 15.3334C92.02 15 91.8479 14.6667 92.0199 14.1667L92.192 13V11C92.192 10.5 92.02 10 91.848 9.50004C91.676 9.00004 91.676 8.66671 91.504 8.33337C91.332 8.00004 91.16 7.66671 91.16 7.50004C90.988 7.33337 90.988 7.16671 90.816 7.00004C90.816 6.83337 90.644 6.83337 90.644 6.66671V6.50004C90.644 6.50004 90.816 6.50004 90.988 6.66671L91.332 6.83337V6.83337ZM126.764 10.8334H128.828C128.828 11.6667 129 12.1667 129 12.1667C129 12.3334 129 12.6667 129.172 13.3334C129.344 14 129.344 14.3334 129.344 14.5C129.344 14.6667 129.516 15.1667 129.688 15.8334C128.828 16.1667 127.796 16.6667 126.764 17V10.8334V10.8334ZM124.528 2.00004H124.356V18C124.356 18.1667 124.184 18.1667 124.184 18.3334H123.84V18.5L124.872 20.6667C124.872 20.8334 125.044 21 125.044 21H125.216C125.216 21 125.388 21 125.388 20.8334L126.076 20.1667C126.42 19.8334 126.592 19.5 126.764 19.3334L127.624 18.3334C127.796 18.1667 128.484 17.3334 129.516 16.3334L129.86 17.1667C130.032 17.5 130.204 18 130.72 18.8334C131.064 19.6667 131.58 20.1667 132.096 20.6667C132.612 21.1667 132.956 21.3334 132.956 21.3334C132.956 21.3334 133.128 21.1667 133.128 21C133.3 20.8334 133.3 20.6667 133.472 20.3334C133.644 20.1667 133.816 19.8334 134.16 19.6667C134.504 19.5 134.676 19.3334 134.848 19.3334L135.536 19.1667C135.708 19.1667 135.708 19.1667 135.708 19C135.708 19 135.708 18.8334 135.536 18.8334L135.192 18.6667C135.02 18.6667 134.676 18.5 133.988 18C133.3 17.6667 132.612 17.1667 132.096 16.5C131.58 16 131.064 15.3334 130.548 14.5L131.58 14.1667L133.3 13.3334C133.472 13.3334 133.816 13.1667 134.16 13L134.848 12.8334C135.536 12.6667 135.536 12.5 134.504 12C133.644 11.5 132.956 11.3334 132.612 11.1667H132.44L132.268 11.3334L132.44 12.1667C131.924 12.8334 131.408 13.5 130.72 14.1667L130.376 13.5C130.376 13.3334 130.204 13 130.032 12.6667C129.86 12.1667 129.688 11.8334 129.688 11.6667C129.688 11.5 129.516 11.1667 129.516 10.8334H131.752V11C131.752 11.3334 131.924 11.5 132.44 11.5C132.956 11.5 133.3 11.5 133.644 11.3334C133.988 11.1667 134.16 11.1667 134.16 11C134.16 11 134.332 10.8334 134.332 10.6667L134.16 8.33337V3.66671C134.504 3.50004 134.848 3.33337 134.848 3.16671C134.848 3.00004 134.504 2.66671 133.644 2.33337C132.784 2.00004 132.44 1.83337 132.268 1.83337C132.096 1.83337 132.096 2.00004 131.924 2.16671L131.408 2.66671H127.28L124.528 2.00004ZM126.764 7.00004H131.408V10.3334H126.764V7.00004V7.00004ZM126.764 3.33337H131.408V6.66671H126.764V3.33337V3.33337ZM120.572 2.16671C120.744 2.16671 120.744 2.00004 120.744 1.83337C120.744 1.66671 120.572 1.66671 120.4 1.50004C120.056 1.33337 119.712 1.16671 119.024 1.00004C118.336 0.833373 117.992 0.666707 117.992 0.666707H117.648H117.476V1.00004L117.304 2.00004C117.304 2.33337 117.132 2.83337 116.96 3.50004C116.788 4.16671 116.616 4.83337 116.444 5.33337L115.928 6.83337C115.412 7.66671 115.24 8.00004 115.24 8.33337L114.896 9.00004V9.33337H115.068L115.412 9.00004L115.756 8.66671L116.272 9.16671H118.164V12.1667H116.444L115.068 11.6667L115.756 12.3334H118.336V17.3334C118.336 17.5 118.336 17.6667 118.164 17.6667C118.164 17.8334 117.992 17.8334 117.992 18C117.82 18 117.82 18.1667 117.82 18.1667C117.82 18.1667 117.82 18.3334 117.992 18.3334L119.196 20.6667C119.196 20.8334 119.368 20.8334 119.368 20.8334L119.54 20.6667L120.572 19.5C120.744 19.1667 121.776 18 123.668 16L124.356 15.1667C124.356 15 124.528 15 124.356 15H124.012L122.98 15.5C122.464 15.8334 121.604 16.1667 120.572 16.6667V12.1667H124.012C124.012 12.1667 124.184 12.1667 124.184 12C124.184 11.8334 123.84 11.5 123.324 11L122.636 10.5C122.464 10.3334 122.464 10.3334 122.292 10.3334C122.292 10.3334 122.12 10.3334 122.12 10.5C122.12 10.5 121.604 11 120.916 11.8334H120.572V9.33337L120.916 9.00004C120.916 9.00004 120.916 8.83337 121.088 8.66671H123.152C123.152 8.66671 123.324 8.66671 123.324 8.50004C123.324 8.33337 122.808 7.83337 121.776 7.00004C121.604 6.83337 121.604 6.83337 121.432 6.83337L120.916 7.33337L120.056 8.16671H117.132L115.928 8.33337C116.616 7.50004 117.476 6.66671 118.164 5.50004H123.84C123.84 5.50004 124.012 5.50004 124.012 5.33337C124.012 5.16671 123.668 5.00004 123.152 4.50004L122.464 4.00004C122.292 3.83337 122.292 3.83337 122.12 3.83337L120.744 5.16671H118.336C118.68 4.50004 119.196 3.66671 119.712 2.66671L120.572 2.16671V2.16671ZM147.232 4.33337L145.34 5.50004C144.136 6.16671 143.104 6.66671 142.072 7.16671L141.212 7.50004H140.868C140.868 7.50004 140.868 7.33337 141.04 7.16671L141.556 6.66671L142.244 6.00004C142.76 5.50004 143.276 5.00004 143.792 4.33337C144.48 3.66671 144.996 3.00004 145.512 2.16671L145.856 1.50004L146.028 1.16671H146.2C146.372 1.16671 146.544 1.33337 146.716 1.50004L147.748 2.16671L148.436 2.83337C148.78 3.16671 148.952 3.33337 148.952 3.50004C148.952 3.66671 148.78 3.83337 148.608 3.83337H148.092C147.92 4.00004 147.404 4.16671 147.232 4.33337V4.33337ZM147.232 9.16671C147.748 9.50004 147.92 9.66671 148.092 9.66671C148.092 9.83337 147.92 10 147.748 10.1667V17.6667L147.92 19.8334C147.92 20 147.748 20.1667 147.748 20.1667C147.576 20.3334 147.404 20.3334 147.06 20.5C146.716 20.6667 146.372 20.6667 145.856 20.6667H145.34C145.168 20.6667 145.168 20.5 145.168 20.3334L145.34 17.8334V11C143.964 12 142.932 12.6667 142.244 13.1667L141.728 13.5C141.556 13.6667 141.384 13.6667 141.384 13.5V13.1667L141.9 12.6667C142.244 12.1667 142.588 11.8334 142.932 11.5C143.276 11.1667 143.792 10.5 144.48 9.50004C145.168 8.50004 145.684 7.66671 146.2 6.83337L146.544 6.16671C146.716 5.83337 146.888 5.66671 146.888 5.66671H147.06C147.232 5.66671 147.748 6.00004 148.608 6.50004C149.468 7.00004 149.812 7.50004 149.812 7.66671C149.812 7.83337 149.468 8.00004 148.952 8.00004C148.092 8.33337 147.748 8.66671 147.232 9.16671V9.16671ZM157.552 9.00004C158.068 8.33337 158.412 7.83337 158.584 7.50004C158.756 7.16671 158.928 7.00004 159.1 7.00004C159.272 7.00004 159.444 7.16671 159.96 7.50004C160.82 8.16671 161.336 8.66671 161.508 8.83337C161.68 9.00004 161.852 9.16671 161.68 9.33337C161.68 9.50004 161.508 9.50004 161.336 9.50004H158.24C158.068 9.66671 158.068 9.83337 157.896 10V18.8334C157.896 19.3334 157.896 19.6667 157.724 19.8334C157.552 20 157.38 20.1667 157.036 20.3334C156.692 20.5 156.348 20.6667 155.832 20.6667C155.316 20.8334 154.972 20.8334 154.628 20.8334C154.456 20.8334 154.284 20.8334 154.284 20.6667V20.1667C154.284 20 154.284 19.8334 154.112 19.6667C154.112 19.5 153.94 19.3334 153.768 19.1667C153.596 19 153.252 18.8334 152.908 18.6667L152.22 18.3334C152.048 18.3334 151.876 18.1667 152.048 18C152.048 17.8334 152.22 17.8334 152.392 17.8334H152.908L154.284 18H154.972C155.144 18 155.144 17.8334 155.316 17.6667V9.16671H149.124L148.608 8.50004L150.156 8.66671H157.552V9.00004V9.00004ZM156.176 3.33337C156.692 2.66671 157.036 2.16671 157.208 2.00004C157.38 1.66671 157.552 1.66671 157.724 1.50004C157.896 1.50004 158.068 1.50004 158.24 1.83337C158.412 2.00004 158.756 2.16671 159.1 2.50004C159.444 2.83337 159.788 3.00004 159.96 3.16671C160.132 3.33337 160.132 3.50004 160.132 3.50004C160.132 3.50004 159.96 3.66671 159.788 3.66671H150.328L149.812 3.00004L151.36 3.16671H156.176V3.33337ZM63.468 28.1667C63.984 28.1667 64.156 28 64.156 27.5V24.6667C64.156 24.1667 63.984 24.1667 63.468 24V23.8334H65.5319V24C65.0159 24 64.844 24 64.844 24.6667V27.5C64.844 28 65.0159 28 65.5319 28.1667V28.3334L63.468 28.1667ZM70.8639 24.1667C70.5199 24.1667 70.1759 24.1667 70.1759 25V28.3334H70.004L67.08 24.8334V27.3334C67.08 28 67.252 28.1667 67.768 28.1667V28.3334H66.2199V28.1667C66.7359 28.1667 66.9079 28 66.9079 27.3334V24.5C66.5639 24.1667 66.5639 24.1667 66.2199 24.1667V24H67.424L70.004 27.1667V25C70.004 24.3334 69.832 24.1667 69.316 24.1667V24L70.8639 24.1667V24.1667ZM72.756 24.5C72.756 24.3334 72.756 24.1667 73.1 24.1667C73.96 24.1667 74.304 24.3334 74.648 24.6667C75.164 25 75.336 25.6667 75.336 26.1667C75.336 28 73.616 28 73.272 28C72.928 28 72.9279 28 72.9279 27.6667V24.5H72.756V24.5ZM71.38 28.3334H73.272C75.336 28.3334 75.8519 27 75.8519 26.1667C75.8519 24.6667 74.82 24 73.1 24H71.2079V24.1667C71.7239 24.1667 71.724 24.3334 71.724 24.8334V27.6667C72.068 28 71.896 28.1667 71.38 28.3334V28.3334ZM81.356 24.1667C80.84 24.1667 80.668 24.3334 80.668 25V26.6667C80.668 27.1667 80.668 28.3334 78.948 28.3334C77.228 28.3334 77.2279 27 77.2279 26.6667V24.6667C77.2279 24.1667 77.0559 24.1667 76.5399 24V23.8334H78.4319V24C77.9159 24 77.744 24.1667 77.744 24.6667V26.6667C77.744 27 77.744 28 78.948 28C79.464 28 79.808 27.8334 79.98 27.5C80.152 27.3334 80.1519 27.1667 80.1519 26.6667V25C80.1519 24.3334 79.9799 24.1667 79.4639 24.1667V24L81.356 24.1667V24.1667ZM84.968 25.3334C84.624 24.8334 84.28 24.1667 83.592 24.1667C83.248 24.1667 82.904 24.3334 82.904 24.8334C82.904 25.8334 85.1399 26 85.1399 27.3334C85.1399 27.8334 84.6239 28.5 83.7639 28.5C83.2479 28.5 82.904 28.3334 82.732 28.3334C82.56 28.3334 82.56 28.5 82.56 28.5H82.388L82.216 27.1667H82.388C82.56 27.5 82.9039 28.3334 83.7639 28.3334C84.2799 28.3334 84.624 28 84.624 27.6667C84.624 27.3334 84.452 27 83.592 26.5C82.904 26.1667 82.56 25.8334 82.56 25.1667C82.56 24.5 83.2479 24 83.7639 24C84.1079 24 84.452 24.1667 84.624 24.1667C84.796 24.1667 84.7959 24 84.7959 24H84.968V25.3334V25.3334ZM88.924 28.3334H87.032V28.1667C87.72 28.1667 87.7199 28 87.7199 27.5V24.1667H87.376C86.688 24.1667 86.516 24.3334 86.344 25H86V23.8334H89.7839V25H89.612C89.44 24.3334 89.268 24.1667 88.58 24.1667H88.236V27.5C88.408 28 88.408 28.1667 88.924 28.3334V28.3334ZM94.944 28.3334H93.912L92.3639 26.3334H92.0199V27.6667C92.0199 28.1667 92.0199 28.1667 92.7079 28.3334H90.816V28.1667C91.332 28.1667 91.332 28 91.332 27.5V24.6667C91.332 24.1667 91.16 24.1667 90.816 24V23.8334H92.7079C93.2239 23.8334 94.4279 24 94.4279 25C94.4279 25.8334 93.568 26 93.224 26.1667L94.6 27.8334C94.428 28 94.6 28.1667 94.944 28.3334ZM91.848 26C92.364 26 93.3959 26 93.3959 25C93.3959 24.1667 92.536 24.1667 92.192 24.1667C91.848 24.1667 91.848 24.1667 91.848 24.3334V26ZM95.46 28.1667C95.976 28.1667 96.148 28 96.148 27.5V24.6667C96.148 24.1667 95.976 24.1667 95.46 24V23.8334H97.524V24C97.008 24 96.836 24 96.836 24.6667V27.5C96.836 28 97.008 28 97.524 28.1667V28.3334L95.46 28.1667ZM99.416 26.6667L100.104 24.8334L100.964 26.6667H99.416ZM102.684 28.1667C102.34 28.1667 102.34 28 101.996 27.6667L100.276 24H100.104L98.7279 27.1667C98.5559 27.5 98.384 28 98.212 28.1667C98.04 28.3334 98.04 28.3334 97.868 28.3334H99.244V28.1667C99.072 28.1667 98.7279 28.1667 98.7279 27.8334V27.6667L99.072 26.8334H100.792L101.136 27.5C101.136 27.6667 101.308 27.8334 101.308 27.8334C101.308 28 101.136 28 100.792 28V28.3334L102.684 28.1667V28.1667ZM105.264 24.1667C104.748 24.1667 104.576 24.1667 104.576 24.8334V27.8334C104.576 28.1667 104.748 28.1667 105.264 28.1667C106.296 28.1667 106.64 28.1667 107.156 27.3334H107.328L106.984 28.3334H103.372V28.1667C103.888 28.1667 103.888 28 103.888 27.5V24.6667C103.888 24.1667 103.716 24.1667 103.372 24V23.8334L105.264 24.1667V24.1667ZM111.284 26.1667C111.972 26.1667 112.144 26.1667 112.316 26.3334C112.66 26.5 113.004 26.6667 113.004 27.1667C113.004 28 112.144 28.1667 111.8 28.1667C111.456 28.1667 111.284 28.1667 111.284 27.8334V26.1667V26.1667ZM109.908 24.1667C110.424 24.1667 110.596 24.3334 110.596 24.8334V27.6667C110.596 28.1667 110.596 28.1667 109.908 28.3334H112.144C113.692 28.3334 113.692 27.5 113.692 27.1667C113.692 26.5 113.176 26.1667 112.488 26C112.832 26 113.348 25.8334 113.348 25C113.348 24 112.144 23.8334 111.628 23.8334L109.908 24.1667V24.1667ZM111.284 24.3334C111.284 24.1667 111.284 24.1667 111.456 24.1667H111.8C112.316 24.1667 113.004 24.3334 113.004 25C113.004 25.8334 112.144 25.8334 111.972 25.8334H111.284V24.3334ZM119.196 28.3334H117.476V28.1667C117.648 28.1667 117.992 28.1667 117.992 28C117.992 27.8334 117.82 27.6667 117.82 27.6667L117.476 27H115.756L115.412 27.8334V28C115.412 28.3334 115.756 28.3334 115.928 28.3334H114.552V28.1667C114.724 28.1667 114.724 28.1667 114.896 28C115.068 27.8334 115.24 27.3334 115.412 27L116.788 23.8334H116.96L118.68 27.5C118.852 28 118.852 28.1667 119.196 28.3334V28.3334ZM117.476 26.6667L116.616 24.8334L115.928 26.6667H117.476ZM124.528 24.1667C124.184 24.1667 123.84 24.1667 123.84 25V28.3334H123.668L120.744 24.8334V27.3334C120.744 28 120.916 28.1667 121.432 28.1667V28.3334H119.884V28.1667C120.4 28.1667 120.572 28 120.572 27.3334V24.5C120.228 24.1667 120.228 24.1667 119.884 24.1667V24H121.088L123.668 27.1667V25C123.668 24.3334 123.496 24.1667 122.98 24.1667V24L124.528 24.1667V24.1667ZM127.796 24H129.516V24.1667C129.172 24.1667 129 24.1667 128.484 24.6667L127.28 25.8334L128.828 27.5C129.344 28 129.516 28.1667 129.86 28.1667V28.3334H127.796V28.1667C128.14 28.1667 128.312 28.1667 128.312 28C128.312 27.8334 127.624 27.1667 127.452 26.8334L126.764 26.1667L126.592 26.3334V27.5C126.592 28 126.592 28 127.28 28.1667V28.3334H125.388V28.1667C125.904 28.1667 126.076 28 126.076 27.5V24.6667C126.076 24.1667 125.904 24.1667 125.388 24V23.8334H127.28V24C126.764 24 126.592 24.1667 126.592 24.6667V26C128.14 24.6667 128.312 24.5 128.312 24.3334C128.14 24.1667 128.14 24.1667 127.796 24V24ZM136.224 25.3334C136.052 24.6667 135.536 24.1667 134.676 24.1667C134.332 24.1667 133.988 24.3334 133.644 24.5C133.3 24.6667 133.128 25.1667 133.128 26.1667C133.128 27.5 133.988 28.1667 134.848 28.1667C135.708 28.1667 136.224 27.6667 136.396 27.5L136.568 27.6667C136.568 27.6667 136.052 28.5 134.676 28.5C133.644 28.5 132.44 27.8334 132.44 26.3334C132.44 24.8334 133.644 24.1667 134.676 24.1667C135.192 24.1667 135.708 24.3334 135.88 24.3334C135.88 24.3334 136.052 24.3334 136.224 24.1667H136.396L136.224 25.3334V25.3334ZM139.664 28.1667C138.976 28.1667 138.288 27.6667 138.288 26.1667C138.288 24.6667 138.976 24.1667 139.664 24.1667C140.352 24.1667 141.04 24.6667 141.04 26.1667C141.04 27.5 140.352 28.1667 139.664 28.1667ZM139.664 28.3334C140.868 28.3334 141.9 27.5 141.9 26.1667C141.9 24.6667 140.868 23.8334 139.664 23.8334C138.632 23.8334 137.428 24.6667 137.428 26.1667C137.428 27.5 138.46 28.3334 139.664 28.3334ZM143.276 28.3334C143.448 28.3334 143.62 28.1667 143.62 28C143.62 27.8334 143.448 27.6667 143.276 27.6667C143.104 27.6667 142.932 27.8334 142.932 28C142.932 28.3334 143.104 28.3334 143.276 28.3334ZM144.996 29.1667C145.168 29.1667 145.684 28.6667 145.684 28.1667C145.684 27.6667 145.34 27.5 145.168 27.5C144.996 27.5 144.824 27.6667 144.824 27.8334C144.824 28.1667 144.996 28.1667 145.168 28.1667H145.34C145.34 28.1667 145.512 28.1667 145.512 28.3334C145.512 28.5 145.512 28.8334 144.996 29.1667V29.1667ZM148.608 24.1667C148.092 24.1667 147.92 24.1667 147.92 24.8334V27.8334C147.92 28.1667 148.092 28.1667 148.608 28.1667C149.64 28.1667 149.984 28.1667 150.5 27.3334H150.672L150.328 28.3334H146.716V28.1667C147.232 28.1667 147.232 28 147.232 27.5V24.6667C147.232 24.1667 147.06 24.1667 146.716 24V23.8334L148.608 24.1667V24.1667ZM153.596 28.3334H151.704V28.1667C152.392 28.1667 152.392 28 152.392 27.5V24.1667H152.048C151.36 24.1667 151.188 24.3334 151.016 25H150.844V23.8334H154.628V25H154.456C154.284 24.3334 154.112 24.1667 153.424 24.1667H153.08V27.5C152.908 28 152.908 28.1667 153.596 28.3334ZM156.348 24.5C156.348 24.3334 156.348 24.1667 156.692 24.1667C157.552 24.1667 157.896 24.3334 158.24 24.6667C158.756 25 158.928 25.6667 158.928 26.1667C158.928 28 157.208 28 156.864 28C156.52 28 156.52 28 156.52 27.6667V24.5H156.348V24.5ZM155.144 28.3334H157.036C159.1 28.3334 159.616 27 159.616 26.1667C159.616 24.6667 158.584 24 156.864 24H154.972V24.1667C155.488 24.1667 155.488 24.3334 155.488 24.8334V27.6667C155.66 28 155.66 28.1667 155.144 28.3334ZM160.992 28.3334C161.164 28.3334 161.336 28.1667 161.336 28C161.336 27.8334 161.164 27.6667 160.992 27.6667C160.82 27.6667 160.648 27.8334 160.648 28C160.648 28.3334 160.992 28.3334 160.992 28.3334Z" fill="#004186"/>
</g>
</svg>
