<svg width="25" height="25" viewBox="0 0 25 25" fill="none" xmlns="http://www.w3.org/2000/svg">
<g id="magic-stick">
<path id="vector" d="M12.5 2H14V6.5H12.5V2ZM12.5 15.5H14V20H12.5V15.5ZM4.25005 11.75V10.25H8.75005V11.75H4.25005ZM17.75 11.75V10.25H22.25V11.75H17.75ZM6.3598 5.16425L7.4143 4.10975L10.6018 7.29725L9.5473 8.35175L6.3598 5.16425ZM15.8983 14.7035L16.9528 13.649L20.1403 16.8365L19.0858 17.891L15.8983 14.7035ZM3.1723 22.133L2.1178 21.0785L9.5473 13.649L10.6018 14.7035L3.1723 22.133ZM16.9535 8.35175L15.899 7.29725L19.0865 4.10975L20.1411 5.16425L16.9535 8.35175Z" fill="#6AAFFF"/>
</g>
</svg>
