<svg width="24" height="25" viewBox="0 0 24 25" fill="none" xmlns="http://www.w3.org/2000/svg">
<g id="video-play">
<path id="vector" d="M12 2C14.969 2.078 17.4418 3.10525 19.4183 5.08175C21.3948 7.05825 22.422 9.531 22.5 12.5C22.422 15.469 21.3948 17.9418 19.4183 19.9183C17.4418 21.8948 14.969 22.922 12 23C9.031 22.922 6.55825 21.8948 4.58175 19.9183C2.60525 17.9418 1.578 15.469 1.5 12.5C1.578 9.531 2.60525 7.05825 4.58175 5.08175C6.55825 3.10525 9.031 2.078 12 2ZM12 21.5C14.547 21.4375 16.668 20.5585 18.363 18.863C20.058 17.1675 20.937 15.0465 21 12.5C20.9375 9.953 20.0585 7.832 18.363 6.137C16.6675 4.442 14.5465 3.563 12 3.5C9.453 3.5625 7.332 4.4415 5.637 6.137C3.942 7.8325 3.063 9.9535 3 12.5C3.0625 15.047 3.9415 17.168 5.637 18.863C7.3325 20.558 9.4535 21.437 12 21.5ZM10.875 15.6875L15.6795 12.5L10.875 9.3125V15.6875ZM11.133 7.67225L16.9688 11.5633C17.2968 11.7978 17.4608 12.1102 17.4608 12.5007C17.4608 12.8912 17.2968 13.2037 16.9688 13.4382L11.133 17.3292C10.9455 17.4542 10.7502 17.5208 10.5472 17.5287C10.3442 17.5367 10.1528 17.4897 9.97275 17.3878C9.79275 17.2858 9.64825 17.149 9.53925 16.9775C9.43025 16.806 9.3755 16.6107 9.375 16.3917V8.6105C9.375 8.3915 9.42975 8.19625 9.53925 8.02475C9.64875 7.85325 9.79325 7.7165 9.97275 7.6145C10.1523 7.5125 10.3438 7.4655 10.5472 7.4735C10.7507 7.4815 10.946 7.548 11.133 7.673V7.67225Z" fill="#6AAFFF"/>
</g>
</svg>
