<svg width="24" height="25" viewBox="0 0 24 25" fill="none" xmlns="http://www.w3.org/2000/svg">
<g id="&#230;&#160;&#135;&#229;&#135;&#134;icon">
<g id="Union">
<path fill-rule="evenodd" clip-rule="evenodd" d="M16.5 6.5C16.5 8.98528 14.4853 11 12 11C9.51472 11 7.5 8.98528 7.5 6.5C7.5 4.01472 9.51472 2 12 2C14.4853 2 16.5 4.01472 16.5 6.5ZM15 6.5C15 8.15685 13.6569 9.5 12 9.5C10.3431 9.5 9 8.15685 9 6.5C9 4.84315 10.3431 3.5 12 3.5C13.6569 3.5 15 4.84315 15 6.5Z" fill="#6AAFFF"/>
<path fill-rule="evenodd" clip-rule="evenodd" d="M10.4378 17.75C10.0807 19.8783 8.22975 21.5 6 21.5C3.51472 21.5 1.5 19.4853 1.5 17C1.5 14.5147 3.51472 12.5 6 12.5C6.545 12.5 7.06737 12.5969 7.55083 12.7744L9.14733 9.9805C9.53295 10.2969 9.97211 10.5505 10.4491 10.7257L8.85265 13.5195C9.67513 14.1945 10.2541 15.1552 10.4378 16.25H13.5622C13.5213 16.4939 13.5 16.7445 13.5 17C13.5 17.2556 13.5213 17.5061 13.5622 17.75H10.4378ZM9 17C9 18.6569 7.65685 20 6 20C4.34315 20 3 18.6569 3 17C3 15.3431 4.34315 14 6 14C7.65685 14 9 15.3431 9 17Z" fill="#6AAFFF"/>
<path fill-rule="evenodd" clip-rule="evenodd" d="M18 21.5C20.4853 21.5 22.5 19.4853 22.5 17C22.5 14.5147 20.4853 12.5 18 12.5C17.455 12.5 16.9326 12.5969 16.4492 12.7744L14.8527 9.98047C14.467 10.2969 14.0279 10.5505 13.5509 10.7256L15.1474 13.5195C14.1416 14.3448 13.5 15.5975 13.5 17C13.5 19.4853 15.5147 21.5 18 21.5ZM18 20C19.6569 20 21 18.6569 21 17C21 15.3431 19.6569 14 18 14C16.3431 14 15 15.3431 15 17C15 18.6569 16.3431 20 18 20Z" fill="#6AAFFF"/>
</g>
</g>
</svg>
