<svg width="25" height="25" viewBox="0 0 25 25" fill="none" xmlns="http://www.w3.org/2000/svg">
<g id="setting">
<path id="vector" d="M15.1482 2L20.3517 5L19.3437 6.758C19.6877 7.1645 20.0002 7.60975 20.2812 8.09375C20.5622 8.57775 20.7967 9.07775 20.9847 9.59375H23.0007V15.5938H20.9847C20.6097 16.6407 20.0627 17.586 19.3437 18.4295L20.3517 20.1875L15.1482 23.1875L14.1402 21.4295C13.0462 21.6325 11.9524 21.6325 10.8589 21.4295L9.85091 23.1875L4.64741 20.1875L5.65541 18.4295C5.29591 18.0075 4.97941 17.5582 4.70591 17.0817C4.43241 16.6052 4.20191 16.1093 4.01441 15.5938H1.99841V9.59375H4.01441C4.38941 8.54675 4.93641 7.6015 5.65541 6.758L4.64741 5L9.85091 2L10.8589 3.758C11.9529 3.555 13.0467 3.555 14.1402 3.758L15.1482 2ZM15.7107 4.03925L15.4294 4.508L14.9134 5.42225L13.8589 5.23475C12.9524 5.06275 12.0462 5.06275 11.1402 5.23475L10.0857 5.42225L9.28841 4.03925L6.70991 5.53925L7.48316 6.92225L6.80366 7.7195C6.20966 8.4225 5.75641 9.2115 5.44391 10.0865L5.09216 11.0945H3.49841V14.0945H5.06891L5.44391 15.1025C5.60041 15.5555 5.78791 15.9695 6.00641 16.3445C6.22491 16.7195 6.49066 17.0945 6.80366 17.4695L7.48316 18.2668L6.70991 19.6497L9.28841 21.1497L10.0857 19.7668L11.1402 19.9543C12.0467 20.1262 12.9529 20.1262 13.8589 19.9543L14.9134 19.7668L15.7107 21.1497L18.2892 19.6497L17.5159 18.2668L18.1954 17.4695C18.7894 16.7505 19.2427 15.9615 19.5552 15.1025L19.9069 14.0945H21.5007V11.0945H19.9302L19.5552 10.0865C19.4147 9.6645 19.2272 9.25425 18.9927 8.85575C18.7582 8.45725 18.4924 8.07825 18.1954 7.71875L17.5159 6.9215L18.2892 5.5385L15.7107 4.03925ZM12.4999 7.34375C13.9844 7.37525 15.2227 7.887 16.2147 8.879C17.2067 9.871 17.7184 11.1093 17.7499 12.5938C17.7184 14.0782 17.2067 15.3165 16.2147 16.3085C15.2227 17.3005 13.9844 17.8123 12.4999 17.8438C11.0154 17.8123 9.77716 17.3005 8.78516 16.3085C7.79316 15.3165 7.28141 14.0782 7.24991 12.5938C7.28141 11.1093 7.79316 9.871 8.78516 8.879C9.77716 7.887 11.0154 7.37525 12.4999 7.34375ZM12.4999 8.84375C11.4374 8.87525 10.5547 9.2425 9.85166 9.9455C9.14866 10.6485 8.78141 11.5312 8.74991 12.5938C8.78141 13.6562 9.14866 14.539 9.85166 15.242C10.5547 15.945 11.4374 16.3123 12.4999 16.3438C13.5624 16.3123 14.4452 15.945 15.1482 15.242C15.8512 14.539 16.2184 13.6562 16.2499 12.5938C16.2184 11.5312 15.8512 10.6485 15.1482 9.9455C14.4452 9.2425 13.5624 8.87525 12.4999 8.84375Z" fill="#6AAFFF"/>
</g>
</svg>
