<svg width="25" height="25" viewBox="0 0 25 25" fill="none" xmlns="http://www.w3.org/2000/svg">
<g id="monitor">
<path id="vector" d="M13.25 18.5V21.5H17.75C17.969 21.5 18.1488 21.5702 18.2892 21.7108C18.4298 21.8512 18.5 22.031 18.5 22.25C18.5 22.469 18.4298 22.6488 18.2892 22.7892C18.1488 22.9298 17.969 23 17.75 23H7.25C7.031 23 6.85125 22.9298 6.71075 22.7892C6.57025 22.6488 6.5 22.469 6.5 22.25C6.5 22.031 6.57025 21.8512 6.71075 21.7108C6.85125 21.5702 7.031 21.5 7.25 21.5H11.75V18.5H5C4.156 18.4845 3.449 18.1915 2.879 17.621C2.309 17.0505 2.016 16.3435 2 15.5V6.5C2.0155 5.656 2.3085 4.949 2.879 4.379C3.4495 3.809 4.1565 3.516 5 3.5H20C20.844 3.5155 21.551 3.8085 22.121 4.379C22.691 4.9495 22.984 5.6565 23 6.5V15.5C22.9845 16.344 22.6915 17.051 22.121 17.621C21.5505 18.191 20.8435 18.484 20 18.5H13.25ZM5 5C4.578 5.0155 4.2265 5.164 3.9455 5.4455C3.6645 5.727 3.516 6.0785 3.5 6.5V15.5C3.5155 15.922 3.664 16.2735 3.9455 16.5545C4.227 16.8355 4.5785 16.984 5 17H20C20.422 16.9845 20.7735 16.836 21.0545 16.5545C21.3355 16.273 21.484 15.9215 21.5 15.5V6.5C21.4845 6.078 21.336 5.7265 21.0545 5.4455C20.773 5.1645 20.4215 5.016 20 5H5Z" fill="#6AAFFF"/>
</g>
</svg>
