<svg width="24" height="25" viewBox="0 0 24 25" fill="none" xmlns="http://www.w3.org/2000/svg">
<g id="lock">
<path id="vector" d="M5.25 11C5.031 11 4.85125 11.0703 4.71075 11.2108C4.57025 11.3512 4.5 11.531 4.5 11.75V20.75C4.5 20.969 4.57025 21.1488 4.71075 21.2892C4.85125 21.4298 5.031 21.5 5.25 21.5H18.75C18.969 21.5 19.1488 21.4298 19.2892 21.2892C19.4298 21.1488 19.5 20.969 19.5 20.75V11.75C19.5 11.531 19.4298 11.3512 19.2892 11.2108C19.1488 11.0703 18.969 11 18.75 11H5.25ZM5.25 9.5H18.75C19.3905 9.5155 19.9217 9.73425 20.3438 10.1562C20.7658 10.5782 20.9845 11.1095 21 11.75V20.75C20.9845 21.3905 20.7658 21.9217 20.3438 22.3438C19.9217 22.7658 19.3905 22.9845 18.75 23H5.25C4.6095 22.9845 4.07825 22.7658 3.65625 22.3438C3.23425 21.9217 3.0155 21.3905 3 20.75V11.75C3.0155 11.1095 3.23425 10.5782 3.65625 10.1562C4.07825 9.73425 4.6095 9.5155 5.25 9.5ZM12 13.25C12.219 13.25 12.3988 13.3203 12.5392 13.4608C12.6797 13.6012 12.75 13.781 12.75 14V18.5C12.75 18.719 12.6797 18.8988 12.5392 19.0392C12.3988 19.1798 12.219 19.25 12 19.25C11.781 19.25 11.6012 19.1798 11.4608 19.0392C11.3203 18.8988 11.25 18.719 11.25 18.5V14C11.25 13.781 11.3203 13.6012 11.4608 13.4608C11.6012 13.3203 11.781 13.25 12 13.25ZM16.5 9.5V8C16.4685 6.7185 16.031 5.656 15.1875 4.8125C14.344 3.969 13.2815 3.5315 12 3.5C10.7185 3.5315 9.656 3.969 8.8125 4.8125C7.969 5.656 7.5315 6.7185 7.5 8V9.5H16.5ZM12 2C13.703 2.047 15.117 2.633 16.242 3.758C17.367 4.883 17.953 6.297 18 8V11H6V8C6.047 6.297 6.633 4.883 7.758 3.758C8.883 2.633 10.297 2.047 12 2Z" fill="#6AAFFF"/>
</g>
</svg>
