<svg width="25" height="25" viewBox="0 0 25 25" fill="none" xmlns="http://www.w3.org/2000/svg">
<g id="data-line">
<path id="vector" d="M8.91425 18.5H4.25C4.031 18.5 3.85125 18.4297 3.71075 18.2892C3.57025 18.1488 3.5 17.969 3.5 17.75V5H2C1.781 5 1.60125 4.92975 1.46075 4.78925C1.32025 4.64875 1.25 4.469 1.25 4.25C1.25 4.031 1.32025 3.85125 1.46075 3.71075C1.60125 3.57025 1.781 3.5 2 3.5H23C23.219 3.5 23.3988 3.57025 23.5392 3.71075C23.6798 3.85125 23.75 4.031 23.75 4.25C23.75 4.469 23.6798 4.64875 23.5392 4.78925C23.3988 4.92975 23.219 5 23 5H21.5V17.75C21.5 17.969 21.4298 18.1488 21.2892 18.2892C21.1488 18.4297 20.969 18.5 20.75 18.5H16.0858L18.6875 23H16.9528L14.351 18.5H10.6475L8.04575 23H6.311L8.91425 18.5ZM20 5H5V17H20V5ZM8.53925 13.0392C8.38275 13.1797 8.203 13.25 8 13.25C7.797 13.25 7.62125 13.1757 7.47275 13.0272C7.32425 12.8787 7.25 12.703 7.25 12.5C7.25 12.297 7.32025 12.1173 7.46075 11.9608L10.9295 8.51525L13.859 10.7188L16.4135 7.53125C16.601 7.29675 16.8392 7.199 17.1283 7.238C17.4172 7.277 17.6125 7.43325 17.714 7.70675C17.8155 7.98025 17.7725 8.23425 17.585 8.46875L14.1395 12.7812L11.069 10.484L8.53925 13.0392Z" fill="#6AAFFF"/>
</g>
</svg>
