<svg width="24" height="25" viewBox="0 0 24 25" fill="none" xmlns="http://www.w3.org/2000/svg">
<g id="present">
<path id="vector" d="M11.25 21.5V15.5H4.5V14H11.25V8H4.5V21.5H11.25ZM12.75 21.5H19.5V8H12.75V14H19.5V15.5H12.75V21.5ZM3 6.5H21V22.25C21 22.469 20.9298 22.6488 20.7892 22.7892C20.6488 22.9298 20.469 23 20.25 23H3.75C3.531 23 3.35125 22.9298 3.21075 22.7892C3.07025 22.6488 3 22.469 3 22.25V6.5ZM2.25 6.5H21.75C22.25 6.5 22.5 6.75 22.5 7.25C22.5 7.75 22.25 8 21.75 8H2.25C1.75 8 1.5 7.75 1.5 7.25C1.5 6.75 1.75 6.5 2.25 6.5ZM9.75 6.5C10.172 6.4845 10.5235 6.336 10.8045 6.0545C11.0855 5.773 11.2262 5.4215 11.2267 5C11.2273 4.5785 11.0865 4.227 10.8045 3.9455C10.5225 3.664 10.171 3.52325 9.75 3.52325C9.329 3.52325 8.9775 3.664 8.6955 3.9455C8.4135 4.227 8.27275 4.5785 8.27325 5C8.27375 5.4215 8.4145 5.773 8.6955 6.0545C8.9765 6.336 9.328 6.4845 9.75 6.5ZM9.75 8C8.906 7.9845 8.199 7.6915 7.629 7.121C7.059 6.5505 6.766 5.8435 6.75 5C6.7655 4.156 7.0585 3.449 7.629 2.879C8.1995 2.309 8.9065 2.016 9.75 2C10.594 2.0155 11.301 2.3085 11.871 2.879C12.441 3.4495 12.734 4.1565 12.75 5C12.7345 5.844 12.4415 6.551 11.871 7.121C11.3005 7.691 10.5935 7.984 9.75 8ZM14.25 6.5C14.672 6.4845 15.0235 6.336 15.3045 6.0545C15.5855 5.773 15.7262 5.4215 15.7267 5C15.7273 4.5785 15.5865 4.227 15.3045 3.9455C15.0225 3.664 14.671 3.52325 14.25 3.52325C13.829 3.52325 13.4775 3.664 13.1955 3.9455C12.9135 4.227 12.7727 4.5785 12.7733 5C12.7738 5.4215 12.9145 5.773 13.1955 6.0545C13.4765 6.336 13.828 6.4845 14.25 6.5ZM14.25 8C13.406 7.9845 12.699 7.6915 12.129 7.121C11.559 6.5505 11.266 5.8435 11.25 5C11.2655 4.156 11.5585 3.449 12.129 2.879C12.6995 2.309 13.4065 2.016 14.25 2C15.094 2.0155 15.801 2.3085 16.371 2.879C16.941 3.4495 17.234 4.1565 17.25 5C17.2345 5.844 16.9415 6.551 16.371 7.121C15.8005 7.691 15.0935 7.984 14.25 8Z" fill="#6AAFFF"/>
</g>
</svg>
