<svg width="26" height="26" viewBox="0 0 26 26" fill="none" xmlns="http://www.w3.org/2000/svg">
<g id="&#230;&#160;&#135;&#229;&#135;&#134;icon">
<path id="vector" d="M4.875 3.25V21.125H14.625V3.25H4.875ZM4.0625 1.625H15.4375C15.6747 1.625 15.8695 1.7011 16.0217 1.85331C16.1739 2.00552 16.25 2.20025 16.25 2.4375V21.9375C16.25 22.1747 16.1739 22.3695 16.0217 22.5217C15.8695 22.6739 15.6747 22.75 15.4375 22.75H4.0625C3.82525 22.75 3.63052 22.6739 3.47831 22.5217C3.3261 22.3695 3.25 22.1747 3.25 21.9375V2.4375C3.25 2.20025 3.3261 2.00552 3.47831 1.85331C3.63052 1.7011 3.82525 1.625 4.0625 1.625ZM6.5 6.5H13V8.125H6.5V6.5ZM6.5 11.375H13V13H6.5V11.375ZM6.5 16.25H13V17.875H6.5V16.25ZM16.25 13H19.5V14.625H16.25V13ZM16.25 16.25H19.5V17.875H16.25V16.25ZM1.625 21.125H24.375V22.75H1.625V21.125ZM16.25 9.75V21.125H21.125V9.75H16.25ZM15.4375 8.125H21.9375C22.1747 8.125 22.3695 8.2011 22.5217 8.35331C22.6739 8.50552 22.75 8.70025 22.75 8.9375V21.9375C22.75 22.1747 22.6739 22.3695 22.5217 22.5217C22.3695 22.6739 22.1747 22.75 21.9375 22.75H15.4375C15.2003 22.75 15.0055 22.6739 14.8533 22.5217C14.7011 22.3695 14.625 22.1747 14.625 21.9375V8.9375C14.625 8.70025 14.7011 8.50552 14.8533 8.35331C15.0055 8.2011 15.2003 8.125 15.4375 8.125Z" fill="#3C4A62"/>
</g>
</svg>
