<svg width="26" height="26" viewBox="0 0 26 26" fill="none" xmlns="http://www.w3.org/2000/svg">
<g id="&#230;&#160;&#135;&#229;&#135;&#134;icon">
<path id="vector" d="M4.875 6.5C4.41783 6.51679 4.03704 6.67767 3.73262 6.98262C3.42821 7.28758 3.26733 7.66838 3.25 8.125V19.5C3.26679 19.9572 3.42767 20.338 3.73262 20.6424C4.03758 20.9468 4.41838 21.1077 4.875 21.125H21.125C21.5822 21.1082 21.963 20.9473 22.2674 20.6424C22.5718 20.3374 22.7327 19.9566 22.75 19.5V8.125C22.7332 7.66783 22.5723 7.28704 22.2674 6.98262C21.9624 6.67821 21.5816 6.51733 21.125 6.5H4.875V6.5ZM4.875 4.875H21.125C22.0393 4.89179 22.8052 5.20921 23.4227 5.82725C24.0402 6.44529 24.3577 7.21121 24.375 8.125V19.5C24.3582 20.4143 24.0408 21.1802 23.4227 21.7977C22.8047 22.4152 22.0388 22.7327 21.125 22.75H4.875C3.96067 22.7332 3.19475 22.4158 2.57725 21.7977C1.95975 21.1797 1.64233 20.4138 1.625 19.5V8.125C1.64179 7.21067 1.95921 6.44475 2.57725 5.82725C3.19529 5.20975 3.96121 4.89233 4.875 4.875V4.875ZM13.8125 13H16.25C16.4872 13 16.682 13.0761 16.8342 13.2283C16.9864 13.3805 17.0625 13.5753 17.0625 13.8125C17.0625 14.0497 16.9864 14.2445 16.8342 14.3967C16.682 14.5489 16.4872 14.625 16.25 14.625H13.8125V17.0625C13.8125 17.2997 13.7364 17.4945 13.5842 17.6467C13.432 17.7989 13.2372 17.875 13 17.875C12.7628 17.875 12.568 17.7989 12.4158 17.6467C12.2636 17.4945 12.1875 17.2997 12.1875 17.0625V14.625H9.75C9.51275 14.625 9.31802 14.5489 9.16581 14.3967C9.0136 14.2445 8.9375 14.0497 8.9375 13.8125C8.9375 13.5753 9.0136 13.3805 9.16581 13.2283C9.31802 13.0761 9.51275 13 9.75 13H12.1875V10.5625C12.1875 10.3253 12.2636 10.1305 12.4158 9.97831C12.568 9.8261 12.7628 9.75 13 9.75C13.2372 9.75 13.432 9.8261 13.5842 9.97831C13.7364 10.1305 13.8125 10.3253 13.8125 10.5625V13V13ZM8.9375 3.25V4.875H17.0625V3.25H8.9375ZM8.125 1.625H17.875C18.1122 1.625 18.307 1.7011 18.4592 1.85331C18.6114 2.00552 18.6875 2.20025 18.6875 2.4375V5.6875C18.6875 5.92475 18.6114 6.11948 18.4592 6.27169C18.307 6.4239 18.1122 6.5 17.875 6.5H8.125C7.88775 6.5 7.69302 6.4239 7.54081 6.27169C7.3886 6.11948 7.3125 5.92475 7.3125 5.6875V2.4375C7.3125 2.20025 7.3886 2.00552 7.54081 1.85331C7.69302 1.7011 7.88775 1.625 8.125 1.625Z" fill="#3C4A62"/>
</g>
</svg>
