<svg width="26" height="26" viewBox="0 0 26 26" fill="none" xmlns="http://www.w3.org/2000/svg">
<g id="&#230;&#160;&#135;&#229;&#135;&#134;icon">
<path id="vector" d="M4.875 8.125V22.75H21.125V8.125H4.875ZM4.0625 6.5H21.9375C22.1747 6.5 22.3695 6.5761 22.5217 6.72831C22.6739 6.88052 22.75 7.07525 22.75 7.3125V23.5625C22.75 23.7997 22.6739 23.9945 22.5217 24.1467C22.3695 24.2989 22.1747 24.375 21.9375 24.375H4.0625C3.82525 24.375 3.63052 24.2989 3.47831 24.1467C3.3261 23.9945 3.25 23.7997 3.25 23.5625V7.3125C3.25 7.07525 3.3261 6.88052 3.47831 6.72831C3.63052 6.5761 3.82525 6.5 4.0625 6.5ZM16.25 11.375V6.5C16.2332 5.58567 15.9158 4.81975 15.2977 4.20225C14.6797 3.58475 13.9138 3.26733 13 3.25C12.0857 3.26679 11.3197 3.58421 10.7022 4.20225C10.0847 4.82029 9.76733 5.58621 9.75 6.5V11.375H8.125V6.5C8.15912 5.11171 8.63308 3.96067 9.54688 3.04688C10.4607 2.13308 11.6117 1.65912 13 1.625C14.3883 1.65912 15.5393 2.13308 16.4531 3.04688C17.3669 3.96067 17.8409 5.11171 17.875 6.5V11.375H16.25Z" fill="#3C4A62"/>
</g>
</svg>
