<svg width="26" height="26" viewBox="0 0 26 26" fill="none" xmlns="http://www.w3.org/2000/svg">
<g id="&#230;&#160;&#135;&#229;&#135;&#134;icon">
<g id="Vector">
<path d="M17.3016 2.27426C17.5259 1.88565 18.0228 1.7525 18.4114 1.97686C18.8001 2.20123 18.9332 2.69815 18.7088 3.08676L16.2713 7.30863C16.047 7.69725 15.5501 7.8304 15.1614 7.60603C14.7728 7.38166 14.6397 6.88475 14.8641 6.49613L17.3016 2.27426Z" fill="#3C4A62"/>
<path d="M10.9396 1.32373C10.9396 0.874999 11.3033 0.51123 11.7521 0.51123C12.2008 0.51123 12.5646 0.874999 12.5646 1.32373V6.19873C12.5646 6.64746 12.2008 7.01123 11.7521 7.01123C11.3033 7.01123 10.9396 6.64746 10.9396 6.19873V1.32373Z" fill="#3C4A62"/>
<path d="M21.8062 6.65941C22.1949 6.43504 22.6918 6.56819 22.9161 6.9568C23.1405 7.34542 23.0074 7.84233 22.6187 8.0667L18.3969 10.5042C18.0083 10.7286 17.5113 10.5954 17.287 10.2068C17.0626 9.81819 17.1958 9.32127 17.5844 9.09691L21.8062 6.65941Z" fill="#3C4A62"/>
</g>
<path id="Union" fill-rule="evenodd" clip-rule="evenodd" d="M8.78712 6.43726C7.78676 5.83704 6.49859 6.45521 6.34097 7.61113L4.32611 22.3868C4.13307 23.8024 5.72942 24.7602 6.88763 23.9237L18.9768 15.1926C19.9226 14.5096 19.8618 13.0821 18.8614 12.4818L8.78712 6.43726ZM16.5667 13.0001L18.0254 13.8753L16.9872 14.6251H7.02456L7.24651 12.9974C7.26828 12.9992 7.29029 13.0001 7.31251 13.0001H16.5667ZM6.80297 16.2501H14.7372L12.4872 17.8751H6.58138L6.80297 16.2501ZM6.35979 19.5001L5.93621 22.6063L10.2372 19.5001H6.35979ZM13.8584 11.3751L7.95107 7.83069L7.46774 11.3751H13.8584Z" fill="#3C4A62"/>
</g>
</svg>
