<svg width="26" height="26" viewBox="0 0 26 26" fill="none" xmlns="http://www.w3.org/2000/svg">
<g id="&#230;&#160;&#135;&#229;&#135;&#134;icon">
<path id="Ellipse 7 (Stroke)" fill-rule="evenodd" clip-rule="evenodd" d="M19.1676 8.4937C20.7592 7.69787 21.125 6.8991 21.125 6.5C21.125 6.1009 20.7592 5.30213 19.1676 4.5063C17.6731 3.75907 15.4948 3.25 13 3.25C10.5052 3.25 8.32689 3.75907 6.83243 4.5063C5.24077 5.30213 4.875 6.1009 4.875 6.5C4.875 6.8991 5.24077 7.69787 6.83243 8.4937C8.32689 9.24093 10.5052 9.75 13 9.75C15.4948 9.75 17.6731 9.24093 19.1676 8.4937ZM13 11.375C18.3848 11.375 22.75 9.19239 22.75 6.5C22.75 3.80761 18.3848 1.625 13 1.625C7.61522 1.625 3.25 3.80761 3.25 6.5C3.25 9.19239 7.61522 11.375 13 11.375Z" fill="#3C4A62"/>
<path id="Subtract" d="M22.1952 8.125C21.9009 8.54137 21.4966 8.93177 20.9999 9.2875C21.0913 9.47097 21.125 9.62889 21.125 9.75C21.125 10.1491 20.7592 10.9479 19.1676 11.7437C17.6731 12.4909 15.4948 13 13 13C10.5052 13 8.32689 12.4909 6.83243 11.7437C5.24077 10.9479 4.875 10.1491 4.875 9.75C4.875 9.62889 4.90868 9.47097 5.00009 9.2875C4.50336 8.93177 4.09912 8.54136 3.80479 8.125C3.4455 8.63327 3.25 9.18022 3.25 9.75C3.25 12.4424 7.61522 14.625 13 14.625C18.3848 14.625 22.75 12.4424 22.75 9.75C22.75 9.18022 22.5545 8.63327 22.1952 8.125Z" fill="#3C4A62"/>
<path id="Subtract_2" d="M22.1952 11.375C21.9009 11.7914 21.4966 12.1818 20.9999 12.5375C21.0913 12.721 21.125 12.8789 21.125 13C21.125 13.3991 20.7592 14.1979 19.1676 14.9937C17.6731 15.7409 15.4948 16.25 13 16.25C10.5052 16.25 8.32689 15.7409 6.83243 14.9937C5.24077 14.1979 4.875 13.3991 4.875 13C4.875 12.8789 4.90868 12.721 5.00009 12.5375C4.50336 12.1818 4.09912 11.7914 3.80479 11.375C3.4455 11.8833 3.25 12.4302 3.25 13C3.25 15.6924 7.61522 17.875 13 17.875C18.3848 17.875 22.75 15.6924 22.75 13C22.75 12.4302 22.5545 11.8833 22.1952 11.375Z" fill="#3C4A62"/>
<path id="Subtract_3" d="M22.1952 14.625C21.9009 15.0414 21.4966 15.4318 20.9999 15.7875C21.0913 15.971 21.125 16.1289 21.125 16.25C21.125 16.6491 20.7592 17.4479 19.1676 18.2437C17.6731 18.9909 15.4948 19.5 13 19.5C10.5052 19.5 8.32689 18.9909 6.83243 18.2437C5.24077 17.4479 4.875 16.6491 4.875 16.25C4.875 16.1289 4.90868 15.971 5.00009 15.7875C4.50336 15.4318 4.09912 15.0414 3.80479 14.625C3.4455 15.1333 3.25 15.6802 3.25 16.25C3.25 18.9424 7.61522 21.125 13 21.125C18.3848 21.125 22.75 18.9424 22.75 16.25C22.75 15.6802 22.5545 15.1333 22.1952 14.625Z" fill="#3C4A62"/>
<path id="Subtract_4" d="M22.1952 17.875C21.9009 18.2914 21.4966 18.6818 20.9999 19.0375C21.0913 19.221 21.125 19.3789 21.125 19.5C21.125 19.8991 20.7592 20.6979 19.1676 21.4937C17.6731 22.2409 15.4948 22.75 13 22.75C10.5052 22.75 8.32689 22.2409 6.83243 21.4937C5.24077 20.6979 4.875 19.8991 4.875 19.5C4.875 19.3789 4.90868 19.221 5.00009 19.0375C4.50336 18.6818 4.09912 18.2914 3.80479 17.875C3.4455 18.3833 3.25 18.9302 3.25 19.5C3.25 22.1924 7.61522 24.375 13 24.375C18.3848 24.375 22.75 22.1924 22.75 19.5C22.75 18.9302 22.5545 18.3833 22.1952 17.875Z" fill="#3C4A62"/>
</g>
</svg>
