<svg width="26" height="26" viewBox="0 0 26 26" fill="none" xmlns="http://www.w3.org/2000/svg">
<g id="&#230;&#160;&#135;&#229;&#135;&#134;icon">
<path id="vector" d="M4.875 18.6875H21.125V3.25H6.5C6.04283 3.26679 5.66204 3.42767 5.35762 3.73262C5.05321 4.03758 4.89233 4.41838 4.875 4.875V18.6875ZM6.5 1.625H21.9375C22.1747 1.625 22.3695 1.7011 22.5217 1.85331C22.6739 2.00552 22.75 2.20025 22.75 2.4375V19.5C22.75 19.7372 22.6739 19.932 22.5217 20.0842C22.3695 20.2364 22.1747 20.3125 21.9375 20.3125H4.0625L3.25 21.7856V4.875C3.26679 3.96067 3.58421 3.19475 4.20225 2.57725C4.82029 1.95975 5.58621 1.64233 6.5 1.625ZM6.09375 20.3125C5.75521 20.3293 5.47165 20.452 5.24306 20.6806C5.01448 20.9091 4.90019 21.1927 4.90019 21.5312C4.90019 21.8698 5.01448 22.1534 5.24306 22.3819C5.47165 22.6105 5.75521 22.7332 6.09375 22.75H21.125V20.3125H6.09375ZM6.09375 18.6875H22.75V22.75C22.7332 23.2072 22.5723 23.588 22.2674 23.8924C21.9624 24.1968 21.5816 24.3577 21.125 24.375H6.09375C5.28125 24.3582 4.6085 24.083 4.0755 23.5495C3.5425 23.016 3.26733 22.3432 3.25 21.5312C3.26679 20.7188 3.54196 20.046 4.0755 19.513C4.60904 18.98 5.28179 18.7048 6.09375 18.6875ZM9.75 3.25V9.62325L12.1875 7.66837L14.625 9.62325V3.25H9.75V3.25ZM8.125 1.625H16.25V11.2986C16.2332 11.6372 16.0767 11.8785 15.7804 12.0226C15.4841 12.1666 15.2005 12.1371 14.9297 11.934L12.1875 9.75L9.44531 11.934C9.17448 12.1371 8.89092 12.1666 8.59463 12.0226C8.29833 11.8785 8.14179 11.6372 8.125 11.2986V1.625Z" fill="#3C4A62"/>
</g>
</svg>
