<svg width="252" height="32" viewBox="0 0 252 32" fill="none" xmlns="http://www.w3.org/2000/svg">
<g id="Frame 4">
<g id="&#229;&#141;&#179;&#230;&#158;&#132;logo 1" clip-path="url(#clip0_1835_55985)">
<g id="&#229;&#155;&#190;&#229;&#177;&#130; 2">
<g id="&#229;&#155;&#190;&#229;&#177;&#130; 1">
<path id="Vector" d="M97.8655 6.68681C97.9359 6.68594 98.0059 6.6985 98.0712 6.72375C98.1366 6.749 98.1961 6.78644 98.2462 6.83389C98.2964 6.88135 98.3362 6.93788 98.3633 7.0002C98.3905 7.06253 98.4045 7.1294 98.4045 7.19695V21.7359C98.4186 22.0343 98.3697 22.3324 98.2607 22.6122C98.1516 22.8921 97.9847 23.1479 97.7699 23.3644C97.54 23.5722 97.2684 23.7333 96.9717 23.8379C96.6751 23.9424 96.3593 23.9882 96.0437 23.9726H93.9558V21.7816H94.9315C95.491 21.7816 95.798 21.4612 95.798 20.8856V8.77314H92.8777V25.2937H90.278V6.68681H97.8655Z" fill="#141921"/>
<path id="Vector_2" d="M88.0195 19.0805H85.3517L86.0749 22.1544V22.259H85.9658L82.5951 22.6776H82.4791V17.7724H88.8452V6.68677H79.9067V25.1367L86.5048 24.3127H86.6003V24.3977L86.8118 25.2937H89.4865L88.0195 19.0805ZM82.5064 11.1668V8.61613H86.266V11.2649H82.5064V11.1668ZM82.5064 15.745V13.1943H86.266V15.8104H82.5064V15.745Z" fill="#141921"/>
<path id="Vector_3" d="M113.265 11.2715L111.833 19.4729L111.819 19.5906H111.935H113.866H113.982L113.961 19.4729L113.197 15.0452H115.469L116.595 21.5069H109.199L110.98 11.2715H113.265Z" fill="#141921"/>
<path id="Vector_4" d="M108.598 11.605V25.2806H106.845V11.605H108.598Z" fill="#141921"/>
<path id="Vector_5" d="M113.477 6.32056L113.088 7.6286L113.047 7.75287H119.461C119.603 7.75285 119.739 7.80639 119.84 7.90188C119.941 7.99736 119.998 8.12711 120 8.263V22.0367C120.049 22.9137 119.735 23.7739 119.127 24.4304C118.815 24.725 118.443 24.9539 118.035 25.1026C117.626 25.2512 117.189 25.3163 116.752 25.2937H112.269V23.1682H115.811C116.207 23.1682 116.588 23.0175 116.87 22.7491C117.151 22.4806 117.31 22.1163 117.312 21.7359L117.394 9.8719V9.77379H109.711L110.768 6.32056H113.497" fill="#141921"/>
<path id="Vector_6" d="M102.376 11.605V25.2806H100.622V11.605H102.376Z" fill="#141921"/>
<path id="Vector_7" d="M105.89 6.32056V8.30878V8.40689H105.992H108.769V10.4409H105.992H105.89V10.539V25.2937H103.29V10.539V10.4409H103.188H100.411V8.40689H103.188H103.29V8.30878V6.32056H105.89Z" fill="#141921"/>
<path id="Vector_8" d="M46.3979 6.00012C46.854 5.99946 47.3098 6.02567 47.7625 6.0786C49.6837 6.34494 51.4916 7.11232 52.9885 8.2969C54.4855 9.48147 55.614 11.0377 56.2506 12.7954H52.3136C51.7224 11.7953 50.8667 10.9623 49.8326 10.3802C48.7986 9.7981 47.6227 9.4875 46.4236 9.47969C45.2244 9.47189 44.0443 9.76716 43.002 10.3358C41.9598 10.9044 41.0924 11.7262 40.4871 12.7185C39.8818 13.7107 39.56 14.8384 39.5541 15.9878C39.5483 17.1373 39.8585 18.2679 40.4537 19.2658C41.0489 20.2637 41.908 21.0936 42.9443 21.6719C43.9807 22.2502 45.1578 22.5565 46.357 22.56C46.7455 22.5587 47.1334 22.5281 47.5169 22.4684C48.6148 22.2869 49.6496 21.8504 50.531 21.1971C51.4123 20.5439 52.1134 19.6937 52.5729 18.7208L52.6411 18.577L52.7571 18.3481H47.3463V15.3134H56.7828V15.5554C56.7828 15.5946 56.7828 15.6796 56.7828 15.7647C56.7863 15.8038 56.7863 15.8432 56.7828 15.8824C56.7647 16.7522 56.9278 17.6168 57.2625 18.4254C57.5973 19.2341 58.097 19.9706 58.7324 20.5918C59.3678 21.2131 60.1262 21.7065 60.963 22.0434C61.7999 22.3802 62.6984 22.5536 63.6061 22.5534C64.0127 22.558 64.419 22.5295 64.8206 22.4684C66.2153 22.2359 67.5009 21.5958 68.5014 20.6357C69.5018 19.6757 70.168 18.4426 70.4088 17.1054C70.5808 16.1612 70.5343 15.1923 70.2723 14.2673C70.0104 13.3423 69.5396 12.4837 68.8932 11.7524C68.2468 11.0212 67.4406 10.435 66.5317 10.0354C65.6227 9.63587 64.6333 9.43269 63.6334 9.44027C63.2448 9.44124 62.8569 9.47186 62.4734 9.53184C60.8759 9.78603 59.4248 10.5765 58.3795 11.7621C57.9596 10.6377 57.3712 9.578 56.6327 8.61621C58.5486 6.92778 61.0581 5.99364 63.6607 6.00012C64.1168 5.99911 64.5726 6.02532 65.0253 6.0786C66.9601 6.3191 68.7858 7.07482 70.2951 8.25994C71.8043 9.44506 72.9366 11.0121 73.5634 12.7831C74.1901 14.554 74.2862 16.458 73.8408 18.2787C73.3953 20.0994 72.4262 21.7639 71.0434 23.0832C70.0771 24.0147 68.9277 24.7534 67.6616 25.2563C66.3955 25.7592 65.038 26.0165 63.6675 26.0132C63.2111 26.0145 62.7552 25.9861 62.3028 25.9282C60.9034 25.7519 59.5559 25.3051 58.342 24.6148C57.1281 23.9245 56.073 23.0052 55.2408 21.9125L55.1589 21.8013L55.0225 21.6182L54.8792 21.8013L54.7973 21.9125C53.6947 23.3585 52.2062 24.4933 50.4881 25.1976C48.77 25.9019 46.8858 26.1497 45.0333 25.9151C43.0984 25.6746 41.2727 24.9189 39.7635 23.7338C38.2543 22.5486 37.122 20.9816 36.4952 19.2106C35.8684 17.4396 35.7723 15.5357 36.2178 13.715C36.6632 11.8943 37.6324 10.2298 39.0152 8.91052C39.9842 7.98201 41.1355 7.24674 42.4027 6.7472C43.6699 6.24766 45.0278 5.99374 46.3979 6.00012" fill="#327BE8"/>
<path id="Vector_9" d="M33.8705 6.69336V9.81305H22.7964H22.694V9.90461V14.3193V14.4174H22.7964H32.1851V17.609H22.7964H22.694V17.7071V22.0825V22.1806H22.7964H33.8705V25.2741H18.9208V6.69336H33.8705Z" fill="#141921"/>
<path id="Vector_10" d="M15.748 6.68677V9.51868L5.60187 22.0301L5.47222 22.1871H5.68374H16.0005V25.2806H0V22.828L10.6647 9.96342L10.7943 9.80645H10.5828H0.286575V6.68677H15.748Z" fill="#141921"/>
</g>
</g>
</g>
<rect id="Rectangle 1" x="132" width="1" height="32" fill="#EEEEEE"/>
<path id="&#228;&#186;&#167;&#228;&#184;&#154;&#228;&#186;&#146;&#232;&#129;&#148;&#231;&#189;&#145;" d="M164.614 14.109H160.183C160.708 13.374 161.317 12.513 161.905 11.652L159.112 10.791C158.755 11.799 158.125 13.185 157.558 14.109H152.686L154.177 13.437C153.862 12.681 153.148 11.61 152.518 10.77H164.173V8.397H157.39C157.117 7.704 156.592 6.801 156.067 6.129L153.484 6.759C153.82 7.242 154.177 7.83 154.429 8.397H147.205V10.77H151.993L150.208 11.547C150.754 12.324 151.342 13.332 151.699 14.109H147.373V17.007C147.373 19.149 147.226 22.152 145.567 24.294C146.134 24.609 147.247 25.596 147.667 26.079C149.599 23.622 149.998 19.674 149.998 17.07V16.545H164.614V14.109ZM172.805 18.372C172.28 16.377 171.062 13.08 170.075 10.623L167.786 11.295C168.752 13.878 169.844 17.238 170.306 19.254L172.805 18.372ZM180.869 22.362V18.414L182.78 19.38C183.872 17.364 185.195 14.403 186.119 11.757L183.872 10.686C183.179 13.08 181.919 16.062 180.869 18.057V6.486H178.286V22.362H175.535V6.486H172.952V22.362H167.534V24.861H186.308V22.362H180.869ZM194.898 17.826C195.129 16.818 195.381 15.684 195.633 14.529H201.639C201.513 15.516 201.366 16.671 201.198 17.826H194.898ZM203.025 22.866C203.571 19.422 204.18 15.348 204.495 12.324L202.584 12.093L202.164 12.198H196.137C196.305 11.253 196.473 10.35 196.662 9.447H207.288V7.053H189.459V9.447H193.932C193.323 12.975 192.315 17.343 191.517 20.157H200.841C200.694 21.102 200.547 22.005 200.421 22.866H188.829V25.302H207.918V22.866H203.025ZM213.211 20.304V17.742H215.374V19.968L213.211 20.304ZM215.374 9.237V11.442H213.211V9.237H215.374ZM213.211 13.479H215.374V15.705H213.211V13.479ZM229.402 17.994V15.726H224.845V15.516V12.807H228.793V10.539H226.399C227.008 9.573 227.659 8.355 228.247 7.221L225.727 6.57C225.328 7.788 224.572 9.426 223.921 10.539H221.506L223.27 9.615C222.892 8.712 222.01 7.473 221.17 6.549L219.175 7.494C219.931 8.397 220.708 9.636 221.086 10.539H218.818V12.807H222.304V15.495V15.726H218.44V17.994H222.115C221.716 20.073 220.645 22.446 217.495 24.273V21.837L219.112 21.543L218.944 19.401L217.495 19.632V9.237H218.251V7.011H210.103V9.237H211.006V20.64L209.851 20.787L210.334 23.118C211.804 22.845 213.547 22.551 215.374 22.215V25.827H217.495V24.315C218.146 24.756 218.944 25.512 219.343 26.058C221.527 24.651 222.892 22.971 223.669 21.27C224.698 23.265 226.126 24.861 228.079 25.806C228.436 25.134 229.171 24.21 229.738 23.727C227.218 22.74 225.538 20.577 224.677 17.994H229.402ZM247.442 19.59C247.001 18.645 246.308 17.511 245.489 16.377C245.951 14.676 246.287 12.849 246.518 10.896L244.313 10.686C244.187 11.883 243.998 13.038 243.767 14.151C243.179 13.437 242.57 12.765 241.982 12.156L240.47 13.521C241.373 14.487 242.276 15.6 243.095 16.713C242.36 18.981 241.352 20.85 239.903 22.215C240.407 22.488 241.415 23.181 241.835 23.538C242.969 22.32 243.893 20.766 244.607 18.981C245.09 19.779 245.51 20.514 245.804 21.165L247.442 19.59ZM234.758 13.731C235.598 14.655 236.48 15.747 237.341 16.797C236.711 18.687 235.871 20.325 234.758 21.543V13.731ZM249.983 7.368H232.259V25.785H234.758V22.299C235.304 22.614 235.934 23.076 236.228 23.349C237.341 22.152 238.202 20.619 238.895 18.855C239.378 19.527 239.798 20.136 240.092 20.64L241.604 18.897C241.121 18.204 240.47 17.301 239.735 16.377C240.176 14.697 240.533 12.849 240.785 10.875L238.559 10.644C238.412 11.904 238.244 13.143 237.992 14.298C237.32 13.521 236.627 12.744 235.976 12.051L234.758 13.353V9.741H247.484V22.761C247.484 23.16 247.316 23.307 246.875 23.328C246.455 23.328 244.922 23.349 243.599 23.244C243.977 23.916 244.397 25.071 244.523 25.764C246.518 25.785 247.862 25.722 248.744 25.302C249.668 24.903 249.983 24.21 249.983 22.803V7.368Z" fill="#141921"/>
</g>
<defs>
<clipPath id="clip0_1835_55985">
<rect width="120" height="20" fill="white" transform="translate(0 6)"/>
</clipPath>
</defs>
</svg>
